<svg id="instagram" xmlns="http://www.w3.org/2000/svg" width="69.865" height="69.865" viewBox="0 0 69.865 69.865">
  <path id="Path_2133" data-name="Path 2133" d="M50.61,23.88H29.787a6.035,6.035,0,0,0-6.028,6.028V50.73a6.035,6.035,0,0,0,6.028,6.028H50.61a6.035,6.035,0,0,0,6.028-6.028V29.908A6.035,6.035,0,0,0,50.61,23.88ZM40.2,51.143A10.824,10.824,0,1,1,51.022,40.319,10.836,10.836,0,0,1,40.2,51.143ZM51.37,31.734a2.561,2.561,0,1,1,2.561-2.561A2.564,2.564,0,0,1,51.37,31.734Z" transform="translate(-5.266 -5.293)" fill="#6a453b"/>
  <path id="Path_2134" data-name="Path 2134" d="M43.1,36.971a6.25,6.25,0,1,0,6.25,6.249A6.258,6.258,0,0,0,43.1,36.971Z" transform="translate(-8.167 -8.194)" fill="#6a453b"/>
  <path id="Path_2135" data-name="Path 2135" d="M34.932,0A34.932,34.932,0,1,0,69.865,34.932,34.933,34.933,0,0,0,34.932,0ZM55.945,45.438a10.612,10.612,0,0,1-10.6,10.6H24.521a10.613,10.613,0,0,1-10.6-10.6V24.615a10.613,10.613,0,0,1,10.6-10.6H45.344a10.613,10.613,0,0,1,10.6,10.6Z" fill="#6a453b"/>
</svg>
