<svg id="linkedin" xmlns="http://www.w3.org/2000/svg" width="65.992" height="65.992" viewBox="0 0 65.992 65.992">
  <ellipse id="Ellipse_95" data-name="Ellipse 95" cx="32.996" cy="32.996" rx="32.996" ry="32.996" transform="translate(0 0)" fill="#007ab9"/>
  <g id="Group_32" data-name="Group 32" transform="translate(15.921 14.099)">
    <path id="Path_2132" data-name="Path 2132" d="M63.858,45.521v13.6H55.971V46.433c0-3.187-1.139-5.363-3.994-5.363a4.314,4.314,0,0,0-4.046,2.884,5.4,5.4,0,0,0-.261,1.922V59.124H39.782s.106-21.5,0-23.721h7.888v3.362c-.016.026-.038.052-.052.078h.052v-.078a7.831,7.831,0,0,1,7.108-3.919c5.189,0,9.079,3.39,9.079,10.675ZM31.531,23.969c-2.7,0-4.463,1.771-4.463,4.1a4.085,4.085,0,0,0,4.36,4.1h.051a4.112,4.112,0,1,0,.052-8.2ZM27.537,59.125h7.885V35.4H27.537Z" transform="translate(-27.068 -23.969)" fill="#f1f2f2"/>
  </g>
</svg>
