<svg xmlns="http://www.w3.org/2000/svg" width="1055.523" height="956.056" viewBox="0 0 1055.523 956.056">
  <g id="Group_63" data-name="Group 63" transform="translate(-15 -124)">
    <g id="undraw_Waiting__for_you_ldha" transform="translate(15 152.854)">
      <ellipse id="Ellipse_49" data-name="Ellipse 49" cx="250.304" cy="8.939" rx="250.304" ry="8.939" transform="translate(252.059 888.097)" fill="#3f3d56"/>
      <circle id="Ellipse_50" data-name="Ellipse 50" cx="89.563" cy="89.563" r="89.563" transform="translate(296.119 270.497)" fill="#ff6584"/>
      <ellipse id="Ellipse_51" data-name="Ellipse 51" cx="75.486" cy="6.958" rx="75.486" ry="6.958" transform="translate(204.673 859.669)" fill="#3f3d56"/>
      <path id="Path_990" data-name="Path 990" d="M489.915,921.619s62.652-182.335,28.113-294.54S456.18,519.256,456.18,519.256s-46.587-13.149-104.419,25.422-73.093,49.967-106.026,34.188-39.358-40.324-119.68-37.694c0,0,42.571-25.422,84.339-2.63s69.88,35.064,112.451,0,101.206-80.648,158.235-53.473c0,0-41.768-44.707-55.422-44.707s-77.913-7.013-98.8-30.681c0,0-29.719-22.792-82.732,33.311s-40.161,56.1-87.551,51.72-84.338-29.8-84.338-29.8,55.422,24.545,89.158,12.272,62.652-58.733,92.371-74.512,47.39-36.818,87.551-14.026c0,0-16.868-75.388-49-69.252s15.261-17.532,15.261-17.532-8.835-127.985-25.7-136.751-6.426-31.558-37.751-35.941c0,0,38.555-5.26,45.784,23.668S346.941,337.8,346.941,337.8s30.522,66.622,64.258,50.843-12.852-104.316-12.852-104.316L340.515,255.4s43.374-1.753,69.88,25.422,28.113,114.835,28.113,114.835,66.668,10.519,82.732,49.967c0,0,10.442-35.064-9.639-56.1-5.02-5.26-10.291-14.409-15.374-25.175-19.438-41.171-26.032-88.1-19.917-133.933,2.992-22.428,4.834-44.357,1.556-49.524-7.229-11.4-37.751-81.525-40.161-99.933s2.41-56.98,2.41-56.98.8,47.337,10.442,62.239S487.5,174.749,487.5,174.749s0,92.921,22.49,138.5,65.864,96.427,63.455,129.738v19.285s48.193-49.967,44.981-66.622-7.229-56.1-37.752-79.771-50.6-61.362-28.916-115.712,21.687-63.992,21.687-63.992l-14.458,67.5S550.96,264.163,573.45,285.2s52.209,59.609,52.209,59.609l-6.426-126.231,20.884,49.967s44.981-63.116,97.993-84.154,85.945-94.674,85.945-94.674l44.98-38.571L832.088,99.361s-11.245,56.98-74.7,97.3S652.969,296.6,650.559,333.415s-4.819,69.252-4.819,69.252,118.877-4.383,145.383-61.363,28.916-170.062,54.619-188.471,73.9-41.2,73.9-41.2l-53.816,48.213s-11.245,39.447-8.835,67.5-17.67,54.35-17.67,54.35l-15.261,49.09-16.868,42.077s69.077,1.753,105.222,46.46,126.106,57.856,126.106,57.856l-50.6,14.9s-48.193-17.532-93.977-49.966-40.964-61.363-97.993-28.928S661,472.8,661,472.8,705.982,450,787.107,505.23s-40.161-9.643-76.306,11.4-53.013-5.26-67.471,47.337-40.964,196.36-10.442,277.009l30.523,80.648Z" transform="translate(-72.238 -23.972)" fill="#3f3d56"/>
      <path id="Path_991" data-name="Path 991" d="M792.342,314.739c-21.534,42.417-104.038,53.023-134.23,55.51-.847,10.889-1.4,17.775-1.4,17.775S775.584,384.008,802.09,331.8s28.916-155.825,54.619-172.693c2.726-1.789,5.707-3.623,8.854-5.473.883-3.242,1.478-5.161,1.478-5.161l53.816-44.177s-48.193,20.884-73.9,37.752S818.848,262.53,792.342,314.739Z" transform="translate(-72.238 -23.972)" opacity="0.1"/>
      <path id="Path_992" data-name="Path 992" d="M653.826,233.593c-.175,19.776-2.742,31.538-2.742,31.538s44.962-57.807,97.96-77.1c3.132-1.982,6.31-3.933,9.562-5.826,63.455-36.948,74.7-89.158,74.7-89.158l36.948-44.177L825.274,84.214s-32.932,67.471-85.945,86.748C703.193,184.1,670.8,215.152,653.826,233.593Z" transform="translate(-72.238 -23.972)" opacity="0.1"/>
      <path id="Path_993" data-name="Path 993" d="M584.416,424.972v17.671s48.193-45.784,44.98-61.045c-2.457-11.671-5.4-35.552-20.292-55.844,6.713,15.335,8.757,30.293,10.544,38.785,2.3,10.944-21.825,37.581-35.663,51.778a36.627,36.627,0,0,1,.43,8.655Z" transform="translate(-72.238 6.875)" opacity="0.1"/>
      <path id="Path_994" data-name="Path 994" d="M519.769,303.7c.382.814.775,1.615,1.192,2.39,12.317,22.875,30.887,47.19,44.781,69.526C554.513,353.5,534.972,328.208,519.769,303.7Z" transform="translate(-72.238 2.973)" opacity="0.1"/>
      <path id="Path_995" data-name="Path 995" d="M558.928,269.509c-6.477-15.87-7.544-34.755-.1-56.884a173.6,173.6,0,0,1,1.385-23.992l12.648-54.1c-2.332,7.8-7.667,22.854-19.877,50.89C537.525,220.913,543.293,248.648,558.928,269.509Z" transform="translate(-72.238 -23.972)" opacity="0.1"/>
      <path id="Path_996" data-name="Path 996" d="M913.629,386.226c-25.067-28.409-65.966-37.887-88.685-41.029l-6.789,15.517s69.077,1.607,105.222,42.571c20.044,22.717,56.633,36.537,85.257,44.346l31.1-8.392S949.774,427.191,913.629,386.226Z" transform="translate(-72.238 8.229)" opacity="0.1"/>
      <path id="Path_997" data-name="Path 997" d="M422.165,375.172c33.735-14.458-12.852-95.584-12.852-95.584L408.039,279c11.614,24.5,28.459,68.788,4.378,79.109-22.533,9.657-43.63-14.369-55.158-31.391l.648,1.863S388.43,389.63,422.165,375.172Z" transform="translate(-72.238 1.456)" opacity="0.1"/>
      <path id="Path_998" data-name="Path 998" d="M532.207,427.382s10.165-31.334-8.931-50.68c4.683,16.666-.817,33.62-.817,33.62-12.427-27.961-55.128-40.057-73.832-44.1.725,9.309.848,15.378.848,15.378S516.142,391.237,532.207,427.382Z" transform="translate(-72.238 8.546)" opacity="0.1"/>
      <path id="Path_999" data-name="Path 999" d="M572.858,134.53c1.81-6.056,1.81-7.745,1.81-7.745Z" transform="translate(-72.238 -23.972)" opacity="0.1"/>
      <path id="Path_1000" data-name="Path 1000" d="M171.875,456.452c.162-.052.326-.1.487-.153,33.735-11.245,62.652-53.816,92.371-68.274s47.39-33.735,87.551-12.852c0,0-7.026-28.76-20.642-47.655a187.393,187.393,0,0,1,10.893,30.6c-40.161-20.884-57.832-1.606-87.551,12.852s-58.635,57.029-92.371,68.274-89.158-11.245-89.158-11.245S110.4,451.288,157.8,455.3C163.216,455.763,167.842,456.168,171.875,456.452Z" transform="translate(-72.238 7.572)" opacity="0.1"/>
      <path id="Path_1001" data-name="Path 1001" d="M506.749,846.473c14.717-45.116,50.111-169.874,22.245-252.824-12.034-35.823-23.189-58.666-32.618-73.239,7.052,13.8,14.762,32.043,22.87,56.18,34.539,102.813-28.113,269.883-28.113,269.883Z" transform="translate(-72.238 51.174)" opacity="0.1"/>
      <path id="Path_1002" data-name="Path 1002" d="M193.068,504.335a81.992,81.992,0,0,1,28.292,8.189c32.987,16.493,57.461,26.954,87.263,14.8,6.789-3.586,14.382-8.024,23.139-13.307.683-.5,1.359-.976,2.049-1.5,42.571-32.129,101.206-73.9,158.235-49,0,0-11.526-11.3-24.446-22.032-52.271-12.823-104.618,24.6-143.537,53.969-42.571,32.129-70.684,20.884-112.451,0s-84.339,2.41-84.339,2.41C158.307,496.943,178.3,499.731,193.068,504.335Z" transform="translate(-72.238 17.144)" opacity="0.1"/>
      <path id="Path_1003" data-name="Path 1003" d="M274.6,145.494a21.013,21.013,0,0,0,3.3,4.223,23.706,23.706,0,0,0-3.3-4.223Z" transform="translate(-72.238 -23.972)" opacity="0.1"/>
      <path id="Path_1004" data-name="Path 1004" d="M421.362,276.376a39.111,39.111,0,0,1,3.482,3.754c-3.519-8.458-7.864-15.772-13.23-20.814-26.506-24.9-69.88-23.294-69.88-23.294l54.4,24.931a77.68,77.68,0,0,1,25.233,15.421Z" transform="translate(-72.238 -4.251)" opacity="0.1"/>
      <path id="Path_1005" data-name="Path 1005" d="M479.085,167.749c3.278,4.735,1.436,24.828-1.556,45.379-6.115,41.995.479,85,19.917,122.721A142.934,142.934,0,0,0,506,350.54c-18.509-37.151-24.715-79.234-18.728-120.354,2.992-20.55,4.834-40.644,1.556-45.379-7.229-10.442-37.751-74.7-40.161-91.567a116.894,116.894,0,0,1-.5-19.709c-6.239-17.7-6.835-49.559-6.835-49.559s-4.819,35.342-2.41,52.209S471.856,157.307,479.085,167.749Z" transform="translate(-72.238 -23.972)" opacity="0.1"/>
      <path id="Path_1006" data-name="Path 1006" d="M554.439,56.707a22.986,22.986,0,0,0-1.458-4.621S553.6,53.819,554.439,56.707Z" transform="translate(-72.238 -23.972)" opacity="0.1"/>
      <path id="Path_1007" data-name="Path 1007" d="M270.737,137.6c7.079.867,15.222,3.039,21.433,8.076-.405-1.37-.759-2.6-1.04-3.631-7.229-26.506-45.784-21.687-45.784-21.687C262.77,122.593,267.27,130.045,270.737,137.6Z" transform="translate(-72.238 -23.972)" opacity="0.1"/>
      <path id="Path_1008" data-name="Path 1008" d="M470.376,812.154c5.727,21.17,25.343,34.281,25.343,34.281s10.331-21.213,4.6-42.383-25.343-34.281-25.343-34.281S464.649,790.984,470.376,812.154Z" transform="translate(-72.238 51.174)" fill="#3f3d56"/>
      <path id="Path_1009" data-name="Path 1009" d="M478.791,807.6c15.715,15.3,17.634,38.814,17.634,38.814s-23.559-1.286-39.274-16.584-17.634-38.814-17.634-38.814S463.076,792.306,478.791,807.6Z" transform="translate(-72.238 51.174)" fill="#6c63ff"/>
      <path id="Path_1010" data-name="Path 1010" d="M426.7,233.613c-1.366,21.888-17.955,38.666-17.955,38.666s-14.374-18.71-13.008-40.6S413.7,193.013,413.7,193.013,428.071,211.724,426.7,233.613Z" transform="translate(-72.238 -7.535)" fill="#6c63ff"/>
      <path id="Path_1011" data-name="Path 1011" d="M253.779,95.237c18.552,11.7,25.319,34.3,25.319,34.3s-23.312,3.64-41.864-8.056-25.319-34.3-25.319-34.3S235.227,83.541,253.779,95.237Z" transform="translate(-72.238 -23.972)" fill="#6c63ff"/>
      <path id="Path_1012" data-name="Path 1012" d="M212.35,362.09c18.552,11.7,25.318,34.3,25.318,34.3s-23.312,3.64-41.864-8.056-25.319-34.3-25.319-34.3S193.8,350.394,212.35,362.09Z" transform="translate(-72.238 6.651)" fill="#6c63ff"/>
      <path id="Path_1013" data-name="Path 1013" d="M311.049,464.445c18.552,11.7,25.319,34.3,25.319,34.3s-23.312,3.64-41.864-8.056-25.319-34.3-25.319-34.3S292.5,452.749,311.049,464.445Z" transform="translate(-72.238 16.163)" fill="#6c63ff"/>
      <path id="Path_1014" data-name="Path 1014" d="M589.5,134.249c-5.595,21.206-25.129,34.439-25.129,34.439s-10.463-21.148-4.868-42.353S584.634,91.9,584.634,91.9,595.1,113.043,589.5,134.249Z" transform="translate(-72.238 -23.972)" fill="#6c63ff"/>
      <path id="Path_1015" data-name="Path 1015" d="M765.986,150.783c-6.576,20.922-26.7,33.232-26.7,33.232s-9.467-21.612-2.892-42.534,26.7-33.232,26.7-33.232S772.562,129.861,765.986,150.783Z" transform="translate(-72.238 -23.972)" fill="#6c63ff"/>
      <path id="Path_1016" data-name="Path 1016" d="M956.737,383.637c-11.911,18.414-34.592,24.917-34.592,24.917s-3.368-23.353,8.543-41.767S965.28,341.87,965.28,341.87,968.648,365.222,956.737,383.637Z" transform="translate(-72.238 6.445)" fill="#6c63ff"/>
      <path id="Path_1017" data-name="Path 1017" d="M657.273,534.211s-1.913,7.016,1.913,9.567,5.1,14.669,5.1,14.669l-7.653,21.047-20.409,3.827-7.653-14.669V546.967s2.551-10.842,1.913-14.031S657.273,534.211,657.273,534.211Z" transform="translate(-72.238 23.697)" fill="#ffb9b9"/>
      <path id="Path_1018" data-name="Path 1018" d="M657.273,534.211s-1.913,7.016,1.913,9.567,5.1,14.669,5.1,14.669l-7.653,21.047-20.409,3.827-7.653-14.669V546.967s2.551-10.842,1.913-14.031S657.273,534.211,657.273,534.211Z" transform="translate(-72.238 23.697)" opacity="0.2"/>
      <path id="Path_1019" data-name="Path 1019" d="M677.682,654.75l16.582,3.189s1.276,18.5,0,22.96-2.551,9.567-1.276,10.842-5.74,33.8-5.1,35.715,1.913,7.653,1.276,11.48-2.551,2.551-1.276,6.378,2.551,4.464,1.276,7.016-7.653,64.415-9.567,65.053-19.133,1.276-19.133,0,5.74-10.842,3.827-13.393.638-45.92.638-47.833,3.827-5.1,1.913-6.378-3.189-2.551-2.551-4.464,1.913-2.551.638-4.464-1.276-40.18-5.74-41.455c0,0-5.74,28.062-3.827,35.077s-.638,9.567-.638,9.567l8.929,7.653-12.118,22.96-12.755-14.669s0-3.827-2.551-4.464-3.827-1.276-3.827-3.189-4.464-14.031-4.464-14.031-12.755-40.18-6.378-60.588,8.835-19.733,8.835-19.733Z" transform="translate(-72.238 51.174)" fill="#2f2e41"/>
      <path id="Path_1020" data-name="Path 1020" d="M615.648,762.8l7.016,7.653L620.113,791.5h-5.74l-8.929-19.771Z" transform="translate(0 75.146)" fill="#ffb9b9"/>
      <path id="Path_1021" data-name="Path 1021" d="M692.351,800.8s-2.551,5.74-4.464,4.464-2.548-3.189-5.419-3.189-5.423.638-4.785,1.913,8.291,15.307,8.291,15.307a18.028,18.028,0,0,1,0,15.307c-3.827,8.291,10.2,12.755,12.755,3.827s3.189-19.133,2.551-22.96,3.189-23.6,3.189-23.6-10.3-4.75-13.443-4.926C691.026,786.945,693.626,798.249,692.351,800.8Z" transform="translate(-72.238 51.174)" fill="#2f2e41"/>
      <path id="Path_1022" data-name="Path 1022" d="M675.131,814.831l2.551,7.653s0,7.653,2.551,11.48,5.1,12.118-5.1,12.755-14.669-3.189-14.669-3.189,1.913-5.1,0-7.016,0-5.74,0-5.74l1.913-15.307Z" transform="translate(-72.238 51.174)" fill="#2f2e41"/>
      <path id="Path_1023" data-name="Path 1023" d="M657.911,751.054h5.74l28.7,37.628s-5.1,12.118-12.755,13.393c0,0-1.276-.638-7.016-4.464s-21.047-22.96-21.047-22.96l-1.913-10.842Z" transform="translate(-72.238 51.174)" fill="#2f2e41"/>
      <circle id="Ellipse_52" data-name="Ellipse 52" cx="20.409" cy="20.409" r="20.409" transform="translate(551.233 521.964)" fill="#ffb9b9"/>
      <path id="Path_1024" data-name="Path 1024" d="M668.753,548.242l-6.378-2.551s-.638,22.322-12.755,22.322-24.873-3.189-24.873-9.567-10.2,11.48-10.2,11.48,9.567,63.777,8.929,64.415,7.016,34.44,7.016,34.44,32.526,1.276,43.368-3.189,14.031-12.755,14.031-12.755l-4.464-56.124-8.929-43.369Z" transform="translate(-72.238 29.822)" fill="#6c63ff"/>
      <path id="Path_1025" data-name="Path 1025" d="M657.915,542.5s2.547-2.551,6.374,0,27.424,8.291,27.424,10.2v24.235s.638,3.827-1.276,6.378-6.378,12.118-3.827,16.582,12.118,56.124,10.2,62.5-7.016,12.118-7.016,12.118-27.424-58.037-27.424-74.619.266-36.925.266-36.925Z" transform="translate(-72.238 30.111)" fill="#575a89"/>
      <path id="Path_1026" data-name="Path 1026" d="M685.973,553.344h5.74S713.4,594.8,713.4,603.09s-14.031,54.211-15.307,54.848-5.1-7.016-5.1-7.016L689.8,625.412s6.378-15.307,4.464-17.858-11.48-22.322-11.48-22.322Z" transform="translate(-72.238 29.251)" fill="#575a89"/>
      <path id="Path_1027" data-name="Path 1027" d="M629.517,542.5s-7.321,5.1-8.6,7.016-20.409,12.755-21.047,15.307,14.669,24.235,14.669,24.235,6.378,35.715,6.378,38.266,2.551,45.92,2.551,45.92,26.149,7.653,26.149,3.189.638-68.242-3.189-82.273S629.517,542.5,629.517,542.5Z" transform="translate(-72.238 30.394)" fill="#575a89"/>
      <path id="Path_1028" data-name="Path 1028" d="M633.676,674.521s21.684,29.338,10.2,28.7-19.133-25.511-19.133-25.511Z" transform="translate(-72.238 35.403)" fill="#ffb9b9"/>
      <path id="Path_1029" data-name="Path 1029" d="M607.527,562.911l-7.653,1.913s-6.378,56.124-2.551,63.777,24.235,57.4,24.235,55.486,17.953-5.324,17.268-7.126-4.512-9.456-5.788-12.007-3.189-5.74-2.551-8.929-7.016-16.838-7.016-16.838-1.913-8.035-2.551-11.862-6.378-45.92-6.378-45.92Z" transform="translate(-72.238 31.444)" fill="#575a89"/>
      <path id="Path_1030" data-name="Path 1030" d="M663.891,506.3a5.072,5.072,0,0,0-2.309-2.837,10.865,10.865,0,0,0-.488-3.744c-1.27-3.535-4.28-3.332-7.119-4.9-1.232-.678-1.156-1.277-1.8-2.391a9.154,9.154,0,0,0-3.633-3.489,13.511,13.511,0,0,0-5.9-2.356c-4.529-.291-8,3.719-12.33,5.006-1.908.567-3.958.591-5.876,1.127s-3.832,1.817-4.118,3.68c-.132.861.1,1.743-.033,2.6-.266,1.71-1.86,2.907-2.927,4.314-2.359,3.11-2.089,7.5-.2,10.887a15.23,15.23,0,0,0,1.361,2,11.8,11.8,0,0,0,1.436,4.578c1.887,3.384,5.133,5.912,8.525,8.013a17.9,17.9,0,0,1-.5-3.417,2.23,2.23,0,0,1,.154-1.132c.378-.743,1.376-.941,2.137-1.348a4.982,4.982,0,0,0,2.24-4.414c.046-1.706-.338-3.414-.149-5.111a2.729,2.729,0,0,1,1.016-2.054,3.686,3.686,0,0,1,1.915-.43c3.229-.124,6.6-.18,9.452-1.617a14.359,14.359,0,0,1,2.942-1.4c2.421-.594,4.895,1,6.29,2.957s2.091,4.28,3.378,6.3,3.511,3.82,6,3.58a1.024,1.024,0,0,0,.743-.311,1,1,0,0,0,.137-.6l.139-8.954a12.775,12.775,0,0,0-.479-4.551Z" transform="translate(-72.238 18.953)" fill="#2f2e41"/>
      <ellipse id="Ellipse_53" data-name="Ellipse 53" cx="125.477" cy="8.939" rx="125.477" ry="8.939" transform="translate(804.569 909.323)" fill="#3f3d56"/>
      <path id="Path_1031" data-name="Path 1031" d="M958.366,846.137s-10.712,9.021-16.35,8.457-16.35-.564-11.84,5.638,23.116,9.585,31.009,10.148,25.371,1.128,24.244-2.255-2.255-19.169-6.766-20.3S958.366,846.137,958.366,846.137Z" transform="translate(-72.238 51.174)" fill="#575a89"/>
      <path id="Path_1032" data-name="Path 1032" d="M1019.85,837.28s-7.894,11.568-13.476,12.54-15.9,3.851-9.889,8.613,24.841,3.019,32.6,1.441,24.741-5.733,22.746-8.688-7.324-17.858-11.972-17.732S1019.85,837.28,1019.85,837.28Z" transform="translate(-72.238 51.174)" fill="#575a89"/>
      <path id="Path_1033" data-name="Path 1033" d="M952.09,671.841s-7.256,49.695-5.565,58.715,2.819,23.116,2.819,23.116-1.128,11.84,0,17.478,7.893,59.2,7.893,60.327-1.128,4.51,0,7.329,3.383.564,0,5.074-1.128,5.638-.564,5.638,22.552,2.255,23.68,0-.564-2.819,0-5.638,1.128-3.383,2.255-3.947,3.383.564,1.691-2.255-5.638-6.2-4.51-7.893-.564-14.1-.564-14.1-1.128-27.627-1.691-44.541,5.074-34.392,5.074-34.392a64.508,64.508,0,0,0,14.659,37.775c14.659,17.478,21.988,50.179,21.988,50.179s3.383,5.074,1.691,9.585-6.766,1.691-1.691,4.51,22.552-1.128,24.244-2.819-2.255-3.947-1.128-8.457,5.638-3.383,1.691-5.638-5.074-1.691-5.074-3.947-10.149-51.306-25.935-65.4l-1.128-51.306s14.1-36.084-.564-39.466S952.09,671.841,952.09,671.841Z" transform="translate(-72.238 51.174)" fill="#2f2e41"/>
      <path id="Path_1034" data-name="Path 1034" d="M962.312,538.3s9.585,23.68,7.329,27.063,27.627-11.276,27.627-11.276-9.585-23.68-9.585-26.5S962.312,538.3,962.312,538.3Z" transform="translate(-72.238 22.519)" fill="#a0616a"/>
      <circle id="Ellipse_54" data-name="Ellipse 54" cx="20.861" cy="20.861" r="20.861" transform="translate(876.26 522.901)" fill="#a0616a"/>
      <path id="Path_1035" data-name="Path 1035" d="M997.268,544.5s-14.659-1.691-21.988,7.329-8.457,11.276-8.457,11.276-17.478,28.19-14.1,42.285a40.772,40.772,0,0,1,2.255,3.947c1.128,2.255,1.128,33.828,0,38.9s-2.255,6.766-1.128,14.1-9.021,19.169,2.819,21.425,20.861.564,24.807-4.51.564-8.457,12.968-8.457a29.835,29.835,0,0,0,20.3-8.457s-6.2-6.766-3.947-7.893,0-3.947-1.128-6.766-1.128-5.074.564-5.074.564-1.128-.564-3.947,19.733-51.306,7.329-65.4S998.4,551.266,998.4,551.266,1000.65,542.81,997.268,544.5Z" transform="translate(-72.238 30.974)" fill="#6c63ff"/>
      <path id="Path_1036" data-name="Path 1036" d="M965.131,598.063V622.87l-18.042,59.763s-11.84,31.009,0,31.009,11.206-29.6,11.206-29.6l25.442-44.825s10.148-35.52,9.021-38.339S965.131,598.063,965.131,598.063Z" transform="translate(-72.238 34.605)" fill="#a0616a"/>
      <path id="Path_1037" data-name="Path 1037" d="M974.716,561.415s-16.914,6.766-12.4,24.807,0,17.478,0,17.478,23.116-2.255,30.445,2.819l1.691-6.766S1001.21,560.851,974.716,561.415Z" transform="translate(-72.238 26.076)" fill="#6c63ff"/>
      <path id="Path_1038" data-name="Path 1038" d="M962.237,507.7a8.323,8.323,0,0,1-7.818-1.217,6.3,6.3,0,0,1-1.777-7.435c1.079-2.119,3.389-3.281,5.6-4.148a52.075,52.075,0,0,1,15.26-3.446c2.494-.177,5.114-.149,7.339.99,1.1.564,2.058,1.377,3.148,1.961,2.005,1.074,4.339,1.313,6.507,2a16.286,16.286,0,0,1,9.953,9.149,19.623,19.623,0,0,1,1.226,4.541,25.294,25.294,0,0,1-1.316,12.663c-2.4,6.4-7.444,11.993-7.729,18.823-3.085-2.238-4.229-6.278-6.7-9.18a12.486,12.486,0,0,0-7.126-4.133,3.968,3.968,0,0,1-2.124-.774,3.42,3.42,0,0,1-.776-1.81l-2.111-9.967c-.43-2.028-.973-4.24-2.64-5.473a7.988,7.988,0,0,0-3.441-1.212,53.972,53.972,0,0,0-8.814-.8" transform="translate(-72.238 19.831)" fill="#2f2e41"/>
    </g>
    <text id="Growing_a_Family_of_Trust" data-name="Growing a Family of Trust" transform="translate(938 163)" fill="#6c757d" font-size="57" font-family="Gabriola"><tspan x="-448.263" y="0">Growing a Family of Trust</tspan></text>
  </g>
</svg>
