<svg id="twitter" xmlns="http://www.w3.org/2000/svg" width="65.992" height="65.992" viewBox="0 0 65.992 65.992">
  <ellipse id="Ellipse_96" data-name="Ellipse 96" cx="32.996" cy="32.996" rx="32.996" ry="32.996" transform="translate(0 0)" fill="#55acee"/>
  <g id="Group_33" data-name="Group 33" transform="translate(14.765 20.015)">
    <path id="Path_2136" data-name="Path 2136" d="M63.546,37.727a15.736,15.736,0,0,1-4.53,1.24A7.908,7.908,0,0,0,62.484,34.6a15.789,15.789,0,0,1-5.008,1.913,7.894,7.894,0,0,0-13.44,7.195,22.389,22.389,0,0,1-16.257-8.242A7.9,7.9,0,0,0,30.219,46a7.831,7.831,0,0,1-3.572-.988c0,.034,0,.067,0,.1a7.892,7.892,0,0,0,6.327,7.733,7.918,7.918,0,0,1-3.561.136A7.9,7.9,0,0,0,36.78,58.46,15.921,15.921,0,0,1,25.1,61.726,22.309,22.309,0,0,0,37.192,65.27c14.507,0,22.441-12.018,22.441-22.441,0-.342-.008-.682-.023-1.02a15.994,15.994,0,0,0,3.936-4.082Z" transform="translate(-25.103 -34.028)" fill="#f1f2f2"/>
  </g>
</svg>
