<svg id="undraw_business_deal_cpi9" xmlns="http://www.w3.org/2000/svg" xmlns:xlink="http://www.w3.org/1999/xlink" width="721.715" height="552.958" viewBox="0 0 721.715 552.958">
  <defs>
    <linearGradient id="linear-gradient" x1="0.5" y1="1" x2="0.5" gradientUnits="objectBoundingBox">
      <stop offset="0" stop-color="gray" stop-opacity="0.251"/>
      <stop offset="0.54" stop-color="gray" stop-opacity="0.122"/>
      <stop offset="1" stop-color="gray" stop-opacity="0.102"/>
    </linearGradient>
  </defs>
  <path id="Path_1" data-name="Path 1" d="M791.228,192.26c-.126.574-.245,1.148-.384,1.715a181.575,181.575,0,0,1-22,55.566c-.351.574-.7,1.148-1.06,1.722a160.43,160.43,0,0,1-24.8,30.482c-5.258,5.056-10.993,9.86-17.814,13.322-9.556,4.862-20.728,6.835-31.708,8.447-11.4,1.683-22.966,3.089-34.5,4.6q-6.146.793-12.218,1.683c-11.139,1.606-22.2,3.463-32.993,5.926a197.054,197.054,0,0,0-38.5,12.613q-1.463.645-2.894,1.367c-.954.464-1.914.935-2.854,1.412s-1.868.954-2.788,1.444c-.477.252-.954.5-1.424.767s-.934.5-1.391.754c-1.377.748-2.728,1.515-4.079,2.289l-.053.032c-.894.509-1.775,1.032-2.649,1.554-4.993,2.953-9.881,6.036-14.768,9.137l-3.073,1.935-4.762,3c-.927.587-1.874,1.174-2.808,1.754-.662.426-1.325.851-2.046,1.29-3.47,2.128-6.987,4.217-10.6,6.21-.854.477-1.715.954-2.583,1.419A148.753,148.753,0,0,1,493.7,372.713l-.106.039a106.17,106.17,0,0,1-12.106,3.327c-2.364.5-4.735.916-7.132,1.232a78.509,78.509,0,0,1-19.337.264c-12.629-1.425-24.463-6.145-37.085-7.738-25.986-3.224-51.224,7.164-75.661,15.3q-9.013,3-18.159,5.617-6.079,1.751-12.218,3.334a471.029,471.029,0,0,1-76.621,13.084,221.59,221.59,0,0,1-32.549.7,122.623,122.623,0,0,1-12.212-1.29c-13.708-2.063-26.49-6.39-36.807-14.315-8.45-6.506-14.5-14.986-19.1-23.859a102.244,102.244,0,0,1-9.874-28.721c-.252-1.361-.477-2.728-.662-4.095q-.5-3.508-.742-7.055a98.481,98.481,0,0,1,4.556-37.3c4.371-13.49,11.655-26.439,14.861-40.032q.2-.864.378-1.722a58.148,58.148,0,0,0,.973-6.249c1.636-16.7-4.636-32.984-9.556-49.318-.172-.567-.344-1.141-.51-1.715q-.795-2.721-1.523-5.436c-4.556-17.269-5.821-35.756-1.762-52.993.126-.574.278-1.148.424-1.715a76.773,76.773,0,0,1,14.98-29.876c7.6-9.286,17.582-17.017,28.245-23.808q7.795-4.965,16.119-9.279,5.96-3.1,12.212-5.862A246.133,246.133,0,0,1,311.931,42.76c1.987.084,3.973.187,5.96.329s4.159.31,6.238.5c24.278,2.3,47.9,7.835,71.356,13.89,7.861,2.031,15.708,4.114,23.549,6.158,3.49.9,6.973,1.806,10.463,2.683,17.092,4.3,34.436,8.2,52,11.1q6.1,1.025,12.212,1.87a359.027,359.027,0,0,0,42.708,3.527q8.338.161,16.682-.142,4.212-.148,8.43-.445c29.039-1.993,57.105-8.66,85.217-14.889q6.1-1.354,12.218-2.67c5.351-1.148,10.7-2.257,16.079-3.282,33.463-6.4,63.29-2.721,94.4,10.492,7.073,3,14.139,6.623,18.47,12.252s5.417,12.542,6.225,19.216c1.146,9.5,1.894,19.132,2.179,28.812,0,.567,0,1.141.04,1.715A252.006,252.006,0,0,1,791.228,192.26Z" transform="translate(-78.605 -38.136)" fill="#6c63ff" opacity="0.1"/>
  <path id="Path_2" data-name="Path 2" d="M573.3,249.694h-2.186v1.722h2.478Zm-24.8,0a.107.107,0,0,0,0,.045c-.06.471-.126.941-.192,1.419v.258h18.946v-.1l1.325-1.619Zm-50.776,0V194.128h21.794c-.232-.148-.47-.3-.715-.445l-.318-.2-.411-.245c-.238-.135-.477-.271-.729-.4s-.4-.219-.616-.329l-.146-.077h-18.86v-3.063l-.51.193-.536.245h-.04l-.113.058-.338.174-.338.174c-.331.174-.662.368-.994.567l-.318.206-.662.413c-.855.555-1.7,1.135-2.564,1.677-.219.135-.437.271-.662.393-.47.271-.954.529-1.451.761a5.614,5.614,0,0,1-.662.277l-.358.135-.331.11h0a15.862,15.862,0,0,1-2.385.606v54.322H452.788c0,.064.046.116.066.181.179.516.358,1.025.53,1.541h32.129V310.96h.5l.576.032,1.04.058,1.663.193.762.071.828.084H491l1.464.174.311.039.709.1,1.014.142h0l2.431-.1h0l.331.058a2.36,2.36,0,0,1,.411.064V251.415h50.571v-.258c.066-.477.132-.948.192-1.419a.106.106,0,0,1,0-.045Zm75.572,0h-2.186v1.722h2.478Zm-26.16,0c-.079.574-.152,1.148-.232,1.722h21.125l1.437-1.722Zm-49.412,0V194.128h21.794c-.232-.148-.47-.3-.715-.445l-.318-.2-.411-.245c-.238-.135-.477-.271-.729-.4s-.4-.219-.616-.329l-.146-.077h-18.86v-3.063l-.51.193-.537.245h-.04l-.113.058-.338.174-.338.174c-.331.174-.662.368-.994.567l-.318.206-.662.413c-.855.555-1.7,1.135-2.564,1.677-.219.135-.437.271-.662.393-.47.271-.954.529-1.451.761a5.612,5.612,0,0,1-.662.277l-.358.135-.331.11h0a15.861,15.861,0,0,1-2.385.606v54.322H452.788c0,.064.046.116.066.181.179.509.364,1.025.537,1.541h32.122v59.551h.5l.576.032,1.04.058,1.663.2.762.071.828.084H491l1.464.174.311.039.709.1,1.014.142h0l2.431-.1h0l.331.058a2.36,2.36,0,0,1,.411.064V251.415h49.246c.079-.574.152-1.148.232-1.722ZM663.035,133.983H800.472c0-.574,0-1.148-.04-1.715h-137.4V64.8q-6.121,1.29-12.222,2.67v64.794H501.339l-.378-.329.57-.49h0l55.6-48.634q-8.347.31-16.687.142l-42.721,37.362V79.442q-6.121-.845-12.215-1.87v40.864l-62.462-54.65c-7.843-2.044-15.693-4.127-23.557-6.158l84.945,74.312-.378.329H328.117V43.8q-3.12-.284-6.24-.5c-1.987-.142-3.975-.245-5.962-.329v89.3H206.651V63.444q-6.187,2.76-12.215,5.862v62.962H135.074c-.146.567-.3,1.141-.424,1.715h59.786v58.429h-56.5c.166.574.338,1.148.51,1.715h55.99v55.566h-47.4q-.179.858-.378,1.722h47.782V406.777c3.975.6,8.088,1.019,12.215,1.29V251.415H315.895V394.267q6.151-1.6,12.222-3.334V251.415h157.4V376.225a106.234,106.234,0,0,0,12.11-3.327l.106-.039V251.415H650.813v58.539q6.095-.871,12.222-1.67V251.415H771.888c.358-.574.709-1.148,1.06-1.722H663.035V194.128H794.954c.139-.567.258-1.141.384-1.715h-132.3Zm-456.384,0H315.895v58.429H206.651Zm0,115.711V194.128H315.895v55.566ZM328.117,133.983h157.4v58.429h-157.4Zm0,115.711V194.128h157.4v55.566Zm322.7,0H497.729V194.128H650.813Zm0-57.281H497.729V135.55l2.146-1.567H650.813ZM548.5,249.694a.107.107,0,0,0,0,.045c-.06.471-.126.941-.192,1.419v.258h18.946v-.1l1.325-1.619Zm24.8,0h-2.186v1.722h2.478Zm-75.572,0V194.128h21.794c-.232-.148-.47-.3-.715-.445l-.318-.2-.411-.245c-.238-.135-.477-.271-.729-.4s-.4-.219-.616-.329l-.146-.077h-18.86v-3.063l-.51.193-.536.245h-.04l-.113.058-.338.174-.338.174c-.331.174-.662.368-.994.567l-.318.206-.662.413c-.855.555-1.7,1.135-2.564,1.677-.219.135-.437.271-.662.393-.47.271-.954.529-1.451.761a5.614,5.614,0,0,1-.662.277l-.358.135-.331.11h0a15.862,15.862,0,0,1-2.385.606v54.322H452.788c0,.064.046.116.066.181.179.516.358,1.025.53,1.541h32.129V310.96h.5l.576.032,1.04.058,1.663.193.762.071.828.084H491l1.464.174.311.039.709.1,1.014.142h0l2.431-.1h0l.331.058a2.36,2.36,0,0,1,.411.064V251.415h50.571v-.258c.066-.477.132-.948.192-1.419a.106.106,0,0,1,0-.045Z" transform="translate(-82.714 -38.288)" fill="#6c63ff" opacity="0.1"/>
  <path id="Path_3" data-name="Path 3" d="M320.464,119.716h.922a1.87,1.87,0,0,1-1.128-1.5h0c0-1.187,1.773-2.154,3.94-2.154h27.573c2.167,0,3.934.967,3.934,2.154h0c0,1.18-1.767,2.154-3.934,2.154h-.922a1.851,1.851,0,0,1,1.129,1.5c0,1.012-1.29,1.864-3.011,2.089H356.9c2.16,0,3.934.967,3.934,2.154s-1.773,2.154-3.934,2.154h-27.58c-2.16,0-3.934-.974-3.934-2.154,0-1.012,1.29-1.857,3.011-2.089h-7.938c-2.167,0-3.934-.967-3.934-2.154S318.3,119.716,320.464,119.716Z" transform="translate(-142.773 -64.247)" fill="#6c63ff" opacity="0.1"/>
  <path id="Path_4" data-name="Path 4" d="M783.9,151.486h.922a1.87,1.87,0,0,1-1.122-1.5h0c0-1.186,1.767-2.154,3.934-2.154h27.573c2.167,0,3.94.967,3.94,2.154h0c0,1.18-1.773,2.147-3.94,2.147H814.3a1.87,1.87,0,0,1,1.122,1.5c0,1.012-1.29,1.864-3.011,2.089h7.938c2.167,0,3.934.967,3.934,2.154s-1.767,2.154-3.934,2.154H792.77c-2.167,0-3.94-.974-3.94-2.154,0-1.012,1.29-1.864,3.011-2.089H783.9c-2.16,0-3.934-.967-3.934-2.154S781.743,151.486,783.9,151.486Z" transform="translate(-299.353 -75.53)" fill="#6c63ff" opacity="0.1"/>
  <path id="Path_5" data-name="Path 5" d="M254.83,287.446h.916a1.864,1.864,0,0,1-1.122-1.5h0c0-1.18,1.773-2.154,3.934-2.154h27.58c2.16,0,3.934.974,3.934,2.154h0c0,1.186-1.773,2.154-3.934,2.154h-.922a1.844,1.844,0,0,1,1.122,1.5c0,1.012-1.29,1.864-3.011,2.089h7.938c2.167,0,3.94.974,3.94,2.154s-1.773,2.154-3.94,2.154H263.716c-2.167,0-3.934-.967-3.934-2.154,0-1.006,1.29-1.857,3.011-2.089H254.83c-2.167,0-3.94-.967-3.94-2.154S252.689,287.446,254.83,287.446Z" transform="translate(-120.595 -118.102)" fill="#6c63ff" opacity="0.1"/>
  <ellipse id="Ellipse_1" data-name="Ellipse 1" cx="41.889" cy="137.848" rx="41.889" ry="137.848" transform="translate(389.217 393.223) rotate(-78.45)" fill="#6c63ff" opacity="0.1"/>
  <path id="Path_6" data-name="Path 6" d="M828.56,402.485s7.332-35.989,35.324-32.655c0,0,19.345,1.328,23.324,13.993v27.993Z" transform="translate(-315.473 -146.136)" fill="#3a3768"/>
  <path id="Path_7" data-name="Path 7" d="M857.267,394.177,607.991,373.51,576,380.178l2,44.655,2.18.264,2.483,67.057,244.608,43.985,26-22V441.451L856.6,439.5Z" transform="translate(-186.88 -120.566)" fill="#d48a9b"/>
  <path id="Path_8" data-name="Path 8" d="M997.279,405.56l-.671,45.32-26.993,12.665-.335-47.325Z" transform="translate(-326.556 -133.796)" opacity="0.05"/>
  <path id="Path_9" data-name="Path 9" d="M991.845,478.94l.329,71.32-25.994,22,1.67-82.649Z" transform="translate(-325.455 -157.035)" opacity="0.05"/>
  <path id="Path_10" data-name="Path 10" d="M582.9,456.4l248.961,30.379.129-5.765L582.71,454.13Z" transform="translate(-189.263 -150.398)" opacity="0.05"/>
  <path id="Path_11" data-name="Path 11" d="M992.4,481.558V478.94L967.73,489.825V495.6Z" transform="translate(-326.006 -158.969)" opacity="0.05"/>
  <path id="Path_12" data-name="Path 12" d="M575.48,380.178l31.991-6.668,249.277,20.667-27.993,10.659Z" transform="translate(-186.695 -123.722)" fill="#efc6cd"/>
  <path id="Path_13" data-name="Path 13" d="M960.365,407.55l12.233.8-20.274,6.068L942,413.676Z" transform="translate(-316.868 -135.45)" opacity="0.1"/>
  <path id="Path_14" data-name="Path 14" d="M960.365,406.72l12.233.8-20.274,6.074L942,412.846Z" transform="translate(-316.868 -135.174)" fill="#fff"/>
  <path id="Path_15" data-name="Path 15" d="M1022.32,444.527c.484-.206.993.187,1.509.284.3.058.6,0,.9.058.6.077,1.193.477,1.767.277" transform="translate(-380.287 -171.668)" fill="#d3dae1"/>
  <path id="Path_16" data-name="Path 16" d="M1021.34,445.1c.477-.206.993.181,1.509.284.3.052.6,0,.9.052.6.084,1.193.484,1.767.284" transform="translate(-379.938 -171.858)" fill="#d3dae1"/>
  <path id="Path_17" data-name="Path 17" d="M1019.08,446.237c.484-.206,1,.181,1.515.277.29.058.6,0,.89.058.606.084,1.2.484,1.767.277" transform="translate(-379.136 -172.237)" fill="#d3dae1"/>
  <path id="Path_18" data-name="Path 18" d="M878.365,398.21l12.233.806-20.274,6.068L860,404.336Z" transform="translate(-290.867 -132.345)" opacity="0.1"/>
  <path id="Path_19" data-name="Path 19" d="M878.365,397.39l12.233.8-20.274,6.068L860,403.516Z" transform="translate(-290.867 -132.073)" fill="#fff"/>
  <path id="Path_20" data-name="Path 20" d="M940.32,435.2c.484-.206.993.181,1.509.284.3.052.6,0,.9.052.6.084,1.193.484,1.767.284" transform="translate(-351.163 -168.565)" fill="#d3dae1"/>
  <path id="Path_21" data-name="Path 21" d="M939.34,435.767c.477-.206.993.181,1.509.277.3.058.6,0,.9.058.6.084,1.193.484,1.767.277" transform="translate(-350.815 -168.754)" fill="#d3dae1"/>
  <path id="Path_22" data-name="Path 22" d="M937.08,436.9c.484-.206,1,.187,1.515.284.29.058.6,0,.89.058.606.077,1.2.484,1.767.277" transform="translate(-350.013 -169.131)" fill="#d3dae1"/>
  <path id="Path_23" data-name="Path 23" d="M917.7,402.88l12.239.8-20.274,6.074-10.33-.748Z" transform="translate(-301.713 -133.897)" opacity="0.1"/>
  <path id="Path_24" data-name="Path 24" d="M917.7,402.06l12.239.8-20.274,6.068-10.33-.748Z" transform="translate(-301.713 -133.625)" fill="#fff"/>
  <path id="Path_25" data-name="Path 25" d="M979.65,439.867c.484-.206,1,.181,1.515.277.29.058.593,0,.89.058.6.077,1.2.484,1.767.277" transform="translate(-365.132 -170.118)" fill="#d3dae1"/>
  <path id="Path_26" data-name="Path 26" d="M978.67,440.427c.484-.206,1,.187,1.515.284.29.058.593,0,.89.058.6.077,1.2.484,1.767.277" transform="translate(-364.784 -170.305)" fill="#d3dae1"/>
  <path id="Path_27" data-name="Path 27" d="M976.42,441.567c.477-.206.993.181,1.509.284.3.052.6,0,.9.052.6.084,1.193.484,1.767.284" transform="translate(-363.985 -170.684)" fill="#d3dae1"/>
  <ellipse id="Ellipse_2" data-name="Ellipse 2" cx="130.568" cy="26.877" rx="130.568" ry="26.877" transform="translate(198.39 475.216)" fill="#6c63ff" opacity="0.1"/>
  <path id="Path_28" data-name="Path 28" d="M636.9,366.662c-1.393-12.239-6.906-23.917-6.906-23.917l.419-4.127s.09-2.064-.045-5.159a23.476,23.476,0,0,1,.754-5.726c1.129-3.579-1.412-7.977-1.7-8.383s.142-8.254-2.4-12.1-19.461-11.007-19.461-11.007-.909-1.9-2.192-4.127l.116-.226a24.243,24.243,0,0,0-3.869-5.217c-1.038-1.109-2.038-1.741-2.844-1.432a23.188,23.188,0,0,1-.748-3.269c.168.045.342.09.509.122a5.262,5.262,0,0,0,2.128.052c1.573-.355,2.618-1.767,3.5-3.1,4.372-6.642,8.138-13.929,8.905-21.789a13.85,13.85,0,0,0-.226-4.811,16.232,16.232,0,0,0-1.509-3.514,28.247,28.247,0,0,0-4.256-6.274,24.245,24.245,0,0,0-11.433-6.261,39.58,39.58,0,0,0-14.767-1.1c-1.29.148-2.579.361-3.869.445a40.185,40.185,0,0,1-4.907-.084l-8.441-.49-.039-.129-1.406-.084c-.555,1.1,0,2.412.69,3.443a5.876,5.876,0,0,1,1.425,3.327c-.058,1.219-.941,2.2-1.631,3.224s-1.212,2.367-.522,3.373a1.932,1.932,0,0,0,.342.374,4.251,4.251,0,0,0,3.1.825h.193a21,21,0,0,0-4.275,12.716A21.383,21.383,0,0,0,573.2,281.181c.123.419.245.851.361,1.29a39.5,39.5,0,0,1,1.354,13.941l-.148.322-.09-.342s-9.943,6.745-12.9,8.531-5.92,7.841-6.062,9.492-4.8,26.548-4.8,26.548a61,61,0,0,0-2.334,7.686l-5.939,5.217s-12.252,1.1-15.8.277l.1.684a53.583,53.583,0,0,0-9.518-1.29,10.092,10.092,0,0,0-5.159.69l-.123.058-.1.045a20.442,20.442,0,0,0-5.417,1.522c-.206.084-.393.168-.574.252l.039-.845-13.258-.684-6.771-1.374s-2.4-1.935-3.811-1.651-4.372-1.651-4.372-1.651a11.823,11.823,0,0,0-2.179-1.354c-.226-1.561-.368-2.508-.368-2.508s-5.268-20.906-9.215-33.2c-2.644-8.209-6.448-12.252-8.693-14.012-1-1.741-1.657-2.863-1.657-2.863-.432-1.509-2.805-4.907-3.411-4.991-.1-.155-.168-.232-.206-.232a.755.755,0,0,0-.38.058c-1.109-5.52-1.754-12.439-.058-18.468a20.383,20.383,0,0,0,7.441-15.708q0-.135,0-.271v-.277a20.293,20.293,0,0,0-4.791-13.09l-.219-.245a1.705,1.705,0,0,0,.168-.135,3.456,3.456,0,0,0,1.219-3.327c-.29-1.238-1.257-2.212-1.754-3.385a21.927,21.927,0,0,1-.716-2.76,8.512,8.512,0,0,0-2.031-3.54l.1.258a12.254,12.254,0,0,0-10.788-3.624c-2.908.464-5.617,1.818-8.538,2.238-2.1.3-4.23.1-6.339.316a16.45,16.45,0,0,0-5.623,1.625,3.224,3.224,0,0,0-1.193.877,4.72,4.72,0,0,0-.593,1.657c-.716,2.612-2.986,4.475-4.63,6.655a15.573,15.573,0,0,0-3.121,8.6,6.733,6.733,0,0,0,.226,2.354c.142.458.361.89.464,1.354.322,1.419-.419,2.831-.78,4.237a8.247,8.247,0,0,0,.458,5.378c2.547,5.7,10.911,7.6,12.652,13.587a16.643,16.643,0,0,0,4.185,1.29c.116.593.219,1.193.3,1.8a.483.483,0,0,0-.11.065c-2.257,2.2-2.818,6.448-2.818,6.448l-.271.219c-.922.761-4.075,3.314-6.926,5.281-3.385,2.341-9.028,10.182-12.974,12.523s-7.2,16.766-6.345,22.008,4.372,19.945,2.96,25.31,2.115,29.85,2.115,29.85a36.05,36.05,0,0,1,6.913,2.051l-.071,1.07-.213,3.224s-6.39,23.111-3.946,40.9S405,446.771,405,446.771s.748,7.886-1.128,10.64-2.257,8.8-2.257,8.8-.187,13.574.187,17.411.561,10.827-.754,12.478-3.759,12.465-3.572,15.766-4.7,10.827-2.07,20.545-7.738,9.9-7.738,9.9,1.322,14.831,4.14,19.074l.413.606c-.071.245-.142.5-.219.78-1.064,3.869-2.521,9.976-1.509,11.452,1.5,2.205,2.257,1.831,2.257,1.831l.561,9.9s11.285,9.537,19.939,9.176,6.958-9.176,6.958-9.176l-7.371-19.113-.251-.645,8.19-15.476s2.257-6.784,2.818-9.17,3.624-10.84,3.624-10.84,7.738-18.339,7.9-20.545.754-14.116,2.257-16.508,5.642-16.121,5.642-16.121l.1.09a5.436,5.436,0,0,1,1.406,5.41c-.948,3.482-.38,10.633-.38,10.633a72.339,72.339,0,0,1-1.128,9.176c-.754,3.121-.935,28.612.38,34.66,1.051,4.843,1.019,13.909.967,17.34-.883,3.643-1.657,8.17-.219,8.705,2.45.922,14.864.735,14.864.735s5.262-1.838,12.413,4.585,29.147-1.831,29.147-1.831,6.771-1.838-6.584-7.151c-9.318-3.708-15.334-6.178-19.268-8.821.09-.174.187-.348.271-.535,0,0-5.455-5.159-.941-14.3a39.829,39.829,0,0,0,4.327-16.875l.754-30.817-2.257-40.909-1.748-42.934.31-.1c.3,7.893,1.838,26.684,9.9,23.04,10.156-4.585,1.5-16.508,1.5-16.508l-4.559-8.886,1.361-.464-5.1-16.482a37.171,37.171,0,0,1-.193-9.718,38.5,38.5,0,0,0-.116-5.675c6.681-1.167,13.077-2.405,14.225-2.122,1.354.329,8.931.393,11.91.406-.974.761-1.754,1.515-1.754,1.515l12.129,8.164s4.114-2.25,4.972-4.636a5.352,5.352,0,0,0,2.27-1.212c.129,2.818.877,5.868,3.482,5.939a4.513,4.513,0,0,0,1.9-.374l19.835-3.927L545.5,384.3l1.187,2.109c-.6,8.97-1.29,18.494-1.9,26.871l-.277,1.831.142.032c-.941,12.9-1.7,22.666-1.7,22.666a11.885,11.885,0,0,1,4.946-4.972l.129,19.139s.993,30.262.993,34.389.135,13.342.135,13.342,2.122,11.278,3.385,14.993,2.257,20.635,2.257,20.635,2.966,4.675,1.7,6.448,4.94,5.636,4.94,5.636-3.953,5.365-4.237,8.944c-.032.413.374.851,1.109,1.29-.232.187-.471.374-.735.555-1.831,1.225-4.514,2.076-8.551,1.728-11.008-.967-18.765,9.215-11.994,11.278s27.083,2.476,27.083,2.476,6.152-3.837,10.962-2.109c-.071,4.037.129,7.738.161,8.228l-.058.045c-2.876,2.579-8.383,7.016-13.761,8.828-7.738,2.612-9.453,13.206.561,14.58s24.685-1.651,24.685-1.651,7.616-5.636,13.4-6.874,10.724-3.992,9.737-7.293c-.645-2.109-2.3-7.635-3.424-11.349q-.1-.335-.193-.645c.174-.387.348-.787.509-1.2,0,0-2.96-15.405-.561-19.255s1.129-42.373,1.129-42.373-4.095-9.763-1.973-15.676-3.385-14.309-3.385-14.309.6-16.824,2.212-26.2q.11-.6.213-1.161a52.839,52.839,0,0,0,7.867-3.037s1.412-21.19,2.257-26c.084-.451.2-1.18.342-2.128l.645-3.4h0l.761-3.869h0l2.579-13.187,4.656-6.023,11.994-12.252S638.307,378.907,636.9,366.662ZM451.929,291l-.09.064a1.118,1.118,0,0,1-.032-.142A.584.584,0,0,0,451.929,291Zm118.5,15.018-.464,1.012,1.7-1.689-2.3,2.579.774-1.625Zm-11.452,23.666c-.445,1.18-.922,2.457-1.419,3.785l.909-2.715Z" transform="translate(-164.203 -84.667)" fill="url(#linear-gradient)"/>
  <path id="Path_29" data-name="Path 29" d="M595.8,444.346s-1.58,10.517,3.16,10.653,7.906-8.112,7.906-8.112l-1.935-6.6Z" transform="translate(-237.489 -170.033)" fill="#585b8a"/>
  <path id="Path_30" data-name="Path 30" d="M595.8,444.346s-1.58,10.517,3.16,10.653,7.906-8.112,7.906-8.112l-1.935-6.6Z" transform="translate(-237.489 -170.033)" opacity="0.2"/>
  <path id="Path_31" data-name="Path 31" d="M418.909,780.033c-8.435.368-19.436-9.163-19.436-9.163l-.548-9.9s-.729.368-2.2-1.831c-.987-1.477.432-7.6,1.47-11.446.5-1.883.916-3.224.916-3.224l18.507,4.952.883,2.341,7.184,19.1S427.337,779.665,418.909,780.033Z" transform="translate(-169.886 -268.777)" fill="#636992"/>
  <path id="Path_32" data-name="Path 32" d="M532.485,744.549s-21.441,8.247-28.373,1.831-12.1-4.585-12.1-4.585-12.1.187-14.483-.735c-1.406-.535-.645-5.12.232-8.77.593-2.521,1.238-4.6,1.238-4.6s21.073-7.151,24.375-2.753a15.81,15.81,0,0,0,3.514,3.353c3.817,2.76,9.782,5.262,19.216,9.112C539.082,742.711,532.485,744.549,532.485,744.549Z" transform="translate(-196.759 -261.331)" fill="#636992"/>
  <path id="Path_33" data-name="Path 33" d="M530.413,496.35l5.862,11.73s8.435,11.917-1.464,16.5-9.711-26.387-9.711-26.387Z" transform="translate(-213.593 -188.351)" fill="#ffd6d6"/>
  <path id="Path_34" data-name="Path 34" d="M495.25,338.61s6.416,2.934,10.266,15.212S514.5,387,514.5,387s3.482,23.64,2.927,29.508a38.048,38.048,0,0,0,.187,9.711l4.946,16.5-9.9,3.482-15.212-58.281Z" transform="translate(-203.348 -134.749)" fill="#dce6f2"/>
  <path id="Path_35" data-name="Path 35" d="M495.25,338.61s6.416,2.934,10.266,15.212S514.5,387,514.5,387s3.482,23.64,2.927,29.508a38.048,38.048,0,0,0,.187,9.711l4.946,16.5-9.9,3.482-15.212-58.281Z" transform="translate(-203.348 -134.749)" opacity="0.05"/>
  <path id="Path_36" data-name="Path 36" d="M418.6,749.436l.883,2.341-1.083,2.07c-4.217,1.831-14.664.368-14.664.368s-1.935-2.457-4.578-6.5c.5-1.883.916-3.224.916-3.224Z" transform="translate(-170.9 -268.784)" opacity="0.1"/>
  <path id="Path_37" data-name="Path 37" d="M508.086,729.15c-5.346,12.11-23.517,7.616-28.567,6.1-.832-.251-1.29-.419-1.29-.419s.032-.987.045-2.541c.593-2.521,1.238-4.6,1.238-4.6s21.073-7.151,24.375-2.754a15.808,15.808,0,0,0,3.514,3.353A6.224,6.224,0,0,0,508.086,729.15Z" transform="translate(-197.563 -261.331)" opacity="0.1"/>
  <path id="Path_38" data-name="Path 38" d="M476.759,620.462c-4.4,9.157.922,14.3.922,14.3-5.346,12.1-23.517,7.616-28.566,6.094-.832-.245-1.29-.413-1.29-.413s.368-12.652-.916-18.7-1.1-31.52-.368-34.635a73.745,73.745,0,0,0,1.1-9.17s-.548-7.145.368-10.627a5.488,5.488,0,0,0-1.367-5.4l-.1-.1s-4.03,13.748-5.5,16.121-2.012,14.3-2.2,16.5-7.7,20.532-7.7,20.532-2.928,8.428-3.476,10.808-2.753,9.17-2.753,9.17l-8.834,17.05c-4.217,1.831-14.664.368-14.664.368s-2.012-2.579-4.765-6.784-4.03-19.055-4.03-19.055,10.079-.187,7.512-9.9,2.2-17.23,2.018-20.532,2.2-14.109,3.482-15.76,1.1-8.615.729-12.465-.181-17.411-.181-17.411.368-6.049,2.2-8.8,1.1-10.633,1.1-10.633,3.476-1.831,1.1-19.61,3.869-40.87,3.869-40.87l.213-3.224.335-5.223s52.419-3.3,56.637.729a13.9,13.9,0,0,1,2.676,3.837,38.175,38.175,0,0,1,3.031,9.756l2.2,55.534,2.2,40.87L481,603.606A40.933,40.933,0,0,1,476.759,620.462Z" transform="translate(-168.054 -168.035)" fill="#565988"/>
  <path id="Path_39" data-name="Path 39" d="M490.6,538.42l-5.5,119.128-6.6,10.859c-.832-.245-1.29-.413-1.29-.413s.368-12.652-.916-18.7-1.1-31.52-.367-34.634a73.753,73.753,0,0,0,1.1-9.17s-.548-7.145.368-10.627a5.488,5.488,0,0,0-1.367-5.4l.09-.645Z" transform="translate(-196.739 -199.295)" opacity="0.1"/>
  <path id="Path_40" data-name="Path 40" d="M406.941,734.483s14.3-5.681,16.5-3.869-16.856,4.578-16.856,4.578Z" transform="translate(-173.44 -263.729)" opacity="0.1"/>
  <path id="Path_41" data-name="Path 41" d="M509.258,713.5c-.548.187-14.477,5.159-13.193,10.446S509.258,713.5,509.258,713.5Z" transform="translate(-203.746 -257.778)" opacity="0.1"/>
  <path id="Path_42" data-name="Path 42" d="M449.07,289.281s4.669,11.272,2.2,17.05S477.933,322,477.933,322s-8.518-22-.271-34.37S449.07,289.281,449.07,289.281Z" transform="translate(-187.701 -117.369)" fill="#ffd6d6"/>
  <path id="Path_43" data-name="Path 43" d="M689.435,786.769c-5.636,1.238-13.058,6.874-13.058,6.874s-14.3,3.024-24.059,1.651-8.106-11.962-.548-14.573c5.243-1.806,10.614-6.261,13.419-8.815,1.238-1.141,1.973-1.935,1.973-1.935l27.361-5.5s.445,1.528,1.064,3.637c1.1,3.721,2.715,9.241,3.334,11.343C699.882,782.784,695.071,785.531,689.435,786.769Z" transform="translate(-253.79 -275.88)" fill="#505484"/>
  <path id="Path_44" data-name="Path 44" d="M671.4,754.777s-11.549,1.238-16.36-1.509-11.685,1.651-11.685,1.651-19.8-.413-26.393-2.476.961-12.252,11.685-11.272c3.908.355,6.552-.5,8.338-1.728a8.783,8.783,0,0,0,3.63-5.442l23.214,1.374,3.224,8.228Z" transform="translate(-243.255 -265.059)" fill="#505484"/>
  <path id="Path_45" data-name="Path 45" d="M679.794,747.355s-26.98-4.411-30.424-7.912A8.783,8.783,0,0,0,653,734l23.214,1.374,3.224,8.228Z" transform="translate(-255.44 -265.059)" opacity="0.1"/>
  <path id="Path_46" data-name="Path 46" d="M634.52,514.346l.277,40.27s.961,30.243.961,34.37.135,13.329.135,13.329,2.064,11.272,3.3,14.986,2.2,20.635,2.2,20.635,2.889,4.675,1.651,6.448,4.811,5.636,4.811,5.636-3.869,5.365-4.121,8.938,30.785,8.647,30.785,8.647L662.429,543.622,652.8,512.56Z" transform="translate(-250.276 -186.413)" fill="#575988"/>
  <path id="Path_47" data-name="Path 47" d="M634.52,514.346l.277,40.27s.961,30.243.961,34.37.135,13.329.135,13.329,2.064,11.272,3.3,14.986,2.2,20.635,2.2,20.635,2.889,4.675,1.651,6.448,4.811,5.636,4.811,5.636-3.869,5.365-4.121,8.938,30.785,8.647,30.785,8.647L662.429,543.622,652.8,512.56Z" transform="translate(-250.276 -186.413)" opacity="0.1"/>
  <path id="Path_48" data-name="Path 48" d="M706.408,768.139c-8.983,21.415-30.346,4.888-30.346,4.888s0-.413-.052-1.122c1.238-1.141,1.973-1.935,1.973-1.935l27.361-5.5S705.789,766.031,706.408,768.139Z" transform="translate(-264.451 -275.88)" opacity="0.1"/>
  <path id="Path_49" data-name="Path 49" d="M695.079,674.335c-8.8,22.57-30.656,5.636-30.656,5.636s-.69-11.685.69-17.043S663.6,641.48,663.6,641.48s-1.651-14.3-3.16-17.591-1.373-9.9-1.373-10.447.548-4.952-.69-7.977-1.935-10.446-1.935-10.446,0-10.446-1.238-16.63l-4.262-21.28-7.7-43.578,2.405-.413,43.095-7.558s8.112,41.27,5.359,45.5a17.75,17.75,0,0,0-1.548,5.578c-1.573,9.363-2.16,26.174-2.16,26.174s5.359,8.383,3.3,14.3,1.935,15.67,1.935,15.67,1.238,38.491-1.1,42.34S695.079,674.335,695.079,674.335Z" transform="translate(-253.025 -183.926)" fill="#575988"/>
  <path id="Path_50" data-name="Path 50" d="M699.55,315.827s-39.039,27.49-30.243,13.742c4.74-7.4,3.869-16.83,2.012-23.949a56.523,56.523,0,0,0-3.869-10.5s33.171-14.109,28.773-1.464a23.692,23.692,0,0,0-1.29,9.183A24.5,24.5,0,0,0,699.55,315.827Z" transform="translate(-261.529 -119.238)" fill="#d28690"/>
  <path id="Path_51" data-name="Path 51" d="M597.107,427.389s-16.5-4.765-19.242-.09.826,14.935,5.8,16.585,16.4-5.591,16.4-5.591Z" transform="translate(-231.027 -164.965)" fill="#d28690"/>
  <path id="Path_52" data-name="Path 52" d="M624.486,416l-6.874,6.326s-11.962,1.1-15.4.271c0,0,3.166,21.17-1.374,23.782l27.767-5.636Z" transform="translate(-239.063 -161.695)" fill="#585b8a"/>
  <path id="Path_53" data-name="Path 53" d="M624.486,416l-6.874,6.326s-11.962,1.1-15.4.271c0,0,3.166,21.17-1.374,23.782l27.767-5.636Z" transform="translate(-239.063 -161.695)" opacity="0.1"/>
  <path id="Path_54" data-name="Path 54" d="M477.911,263.276a20.635,20.635,0,0,1-20.635,20.635c-10.588-5.088-20.635-9.228-20.635-20.635a20.635,20.635,0,1,1,41.238,0Z" transform="translate(-183.379 -103.876)" opacity="0.1"/>
  <path id="Path_55" data-name="Path 55" d="M477.961,262.893a20.6,20.6,0,1,1-4.669-13.045A20.6,20.6,0,0,1,477.961,262.893Z" transform="translate(-183.427 -104.045)" fill="#ffd6d6"/>
  <path id="Path_56" data-name="Path 56" d="M486.455,466.684a46.643,46.643,0,0,1-6.39,3.315s-10.446-1.515-11.955.271-14.831,2.476-14.831,2.476-20.345-.961-23.369-3.572a12.383,12.383,0,0,0-3.089-1.831l.335-5.223s52.419-3.3,56.636.729a13.9,13.9,0,0,1,2.663,3.837Z" transform="translate(-179.883 -176.911)" opacity="0.1"/>
  <path id="Path_57" data-name="Path 57" d="M482.529,408.784c-.413,2.334-8.937,5.907-8.937,5.907s-10.446-1.509-11.955.277-14.831,2.476-14.831,2.476-20.345-.967-23.369-3.579S413.673,410,413.673,410s-3.437-24.465-2.057-29.824-2.063-20.074-2.889-25.3,2.334-19.655,6.184-21.989,9.35-10.176,12.645-12.51c2.779-1.967,5.849-4.514,6.745-5.281l.264-.219s.555-4.262,2.753-6.448,22.4,13.883,22.4,13.883.142,1.238,1.515-1.1c.31-.522,2.973,3.321,3.437,4.946,0,0,10.995,19.249,11.685,23.214s3.572,16.908,4.121,20.067c.142.813.374,3.663.645,7.48.052.748.1,1.541.155,2.367.406,6.332.845,14.419,1.109,20.532,0,.7.058,1.367.077,2.012A68.452,68.452,0,0,1,482.529,408.784Z" transform="translate(-173.59 -124.783)" fill="#dce6f2"/>
  <path id="Path_58" data-name="Path 58" d="M415,387.21s7.558,9.208,10.034,9.208S415,387.21,415,387.21Z" transform="translate(-176.348 -152.496)" opacity="0.1"/>
  <path id="Path_59" data-name="Path 59" d="M433.7,417.91s-12.375,13.471-10.724,15.947S433.7,417.91,433.7,417.91Z" transform="translate(-178.994 -162.578)" opacity="0.1"/>
  <path id="Path_60" data-name="Path 60" d="M425.62,447.973s14.187-15.534,14.831-20.893Z" transform="translate(-179.905 -165.538)" opacity="0.1"/>
  <path id="Path_61" data-name="Path 61" d="M453.33,451.9s16.36-8.66,17.733-15.534S453.33,451.9,453.33,451.9Z" transform="translate(-189.259 -168.258)" opacity="0.1"/>
  <path id="Path_62" data-name="Path 62" d="M484.27,330.593,482,336.087l3.779,1.786,3.714,10.382s10.24,20.48,9.827,31.133,1.857,26.664,1.857,26.664l5.907-1.1L504.3,373.623a45.2,45.2,0,0,0-3.6-14.064c-4.72-10.808-13.5-30.759-14.058-30.759-.754,0-.226.277-.226.277Z" transform="translate(-198.889 -132.089)" opacity="0.1"/>
  <path id="Path_63" data-name="Path 63" d="M485.12,329.736l-2.27,5.5,3.785,1.786,3.708,10.382s10.24,20.48,9.827,31.133,1.857,26.664,1.857,26.664l5.913-1.1-2.792-31.333a45.023,45.023,0,0,0-3.592-14.064c-4.72-10.814-13.5-30.759-14.051-30.759-.761,0-.232.277-.232.277Z" transform="translate(-199.176 -131.81)" fill="#575989"/>
  <path id="Path_64" data-name="Path 64" d="M582.647,445.46c-2.876-.219-9.776-3.708-12.516-5.159l-1.161-.645.142-10.646a18.709,18.709,0,0,1,2.1-1.064c3.663-1.6,11.175-3.772,14.941,3.224C591.236,440.552,586.29,445.7,582.647,445.46Z" transform="translate(-228.388 -165.318)" fill="#ffd6d6"/>
  <path id="Path_65" data-name="Path 65" d="M473.231,249.809a3.051,3.051,0,0,1-.961.393c-2.392.522-5.114-1.535-7.164-.213-1.251.813-1.541,2.5-1.709,3.979q-.438,3.869-.877,7.687a9.484,9.484,0,0,1-.568,2.65c-1.012,2.315-3.792,3.4-6.326,3.366a3.772,3.772,0,0,1-2.728-.9c-.445-.451-.684-1.083-1.174-1.5-3.224-2.7-4.2,3.921-3.353,5.8,1.367,3.076,6.223,6.042,4.185,9.95a3.728,3.728,0,0,1-1.5,1.5,20.635,20.635,0,1,1,22.17-32.719Z" transform="translate(-183.414 -104.018)" opacity="0.1"/>
  <path id="Path_66" data-name="Path 66" d="M447.522,260.112c.484.406.729,1.038,1.174,1.49a3.779,3.779,0,0,0,2.728.9c2.534.039,5.314-1.045,6.319-3.373a9.182,9.182,0,0,0,.574-2.644l.877-7.686c.168-1.483.451-3.166,1.709-3.979,2.051-1.29,4.772.735,7.164.213A3.5,3.5,0,0,0,470.646,241c-.277-1.232-1.219-2.205-1.7-3.379a22.082,22.082,0,0,1-.7-2.753c-1.335-5-7.209-7.815-12.316-6.977-2.837.471-5.475,1.825-8.318,2.238-2.038.3-4.121.1-6.178.322a15.593,15.593,0,0,0-5.481,1.619,3.186,3.186,0,0,0-1.161.877,4.843,4.843,0,0,0-.58,1.651c-.69,2.579-2.908,4.482-4.514,6.655a15.857,15.857,0,0,0-3.057,8.583,6.882,6.882,0,0,0,.219,2.354c.135.451.348.89.451,1.354.316,1.412-.406,2.824-.761,4.23a8.46,8.46,0,0,0,.451,5.378c2.476,5.694,10.633,7.6,12.329,13.574a13.541,13.541,0,0,0,4.8,1.29,4.628,4.628,0,0,0,4.23-2.16c2.031-3.869-2.818-6.874-4.185-9.944C443.311,264.02,444.272,257.4,447.522,260.112Z" transform="translate(-179.86 -99.139)" fill="#353045"/>
  <path id="Path_67" data-name="Path 67" d="M696.269,293.651a23.692,23.692,0,0,0-1.29,9.183c-.993.845-2.076-1.683-3.224-1.032-3.147,1.818-6.784,6.145-10.679,6.145a21.39,21.39,0,0,1-9.718-2.328,56.517,56.517,0,0,0-3.869-10.5S700.667,281.005,696.269,293.651Z" transform="translate(-261.588 -119.545)" opacity="0.1"/>
  <path id="Path_68" data-name="Path 68" d="M698.155,271.947A21.447,21.447,0,1,1,676.708,250.5,21.447,21.447,0,0,1,698.155,271.947Z" transform="translate(-257.24 -106.737)" fill="#d28690"/>
  <path id="Path_69" data-name="Path 69" d="M691.184,331.667s-4.037,4.4-4.585,4.759-12.252,49.653-12.458,50.227-13.935,45.081-13.935,45.081l-22,10.814,1.838-54.438,16.121-44.894s5.32-6.049,6.964-8.248,22.176-15.4,22.176-15.4l3.508,7.229Z" transform="translate(-251.323 -128.224)" fill="#f0f3f7"/>
  <path id="Path_70" data-name="Path 70" d="M701.7,328.509l-25.291,18.107L676,336.672c1.651-2.2,22.176-15.392,22.176-15.392Z" transform="translate(-264.52 -130.383)" opacity="0.1"/>
  <path id="Path_71" data-name="Path 71" d="M702.554,326.8l-25.291,18.107-.393-9.937c1.651-2.205,22.176-15.4,22.176-15.4Z" transform="translate(-264.815 -129.816)" fill="#f0f3f7"/>
  <path id="Path_72" data-name="Path 72" d="M658.4,336.59l.845,4.424-5.655,5.746,4.514-10.1s-9.673,6.739-12.574,8.525-5.8,7.835-5.913,9.486-4.675,26.529-4.675,26.529-3.437,9.208-2.47,11.82-5.223,84.952-5.223,84.952a12.252,12.252,0,0,1,8.267-6.339l-2.205-48.66s2.683-32.371,2.818-32.784,6.255-19.178,6.255-19.178Z" transform="translate(-247.936 -133.359)" fill="#585b8a"/>
  <path id="Path_73" data-name="Path 73" d="M661.489,344.3l-.438,9.028s-6.12,19.313-8.177,22.473-8.318,22-8.318,22l-3.527,32.719-6.049,2.753L632,427.781l4.952-31.6s9.344-26.664,10.724-29.418l6.893-14.522Z" transform="translate(-249.579 -136.973)" opacity="0.1"/>
  <path id="Path_74" data-name="Path 74" d="M660.618,343.45l-.432,9.028s-6.12,19.313-8.183,22.473-8.312,22-8.312,22l-3.508,32.713-6.049,2.747-3.024-5.494,4.952-31.6s9.344-26.671,10.717-29.418l6.945-14.5Z" transform="translate(-249.278 -136.694)" fill="#663d5c"/>
  <path id="Path_75" data-name="Path 75" d="M566.31,448.659l11.82,8.183s8.338-4.675,3.482-7.7a21.529,21.529,0,0,0-10.724-3.482C569.328,445.66,566.31,448.659,566.31,448.659Z" transform="translate(-227.519 -171.88)" fill="#d28690"/>
  <path id="Path_76" data-name="Path 76" d="M579.528,426.251a1.818,1.818,0,0,0-.858,1.554c0,2.508.284,9.15,2.386,6.152,2.579-3.669,2.109-6.964,6.049-4.585a23.213,23.213,0,0,1,6.319,5.8l-1.1-7.88S584.229,423.3,579.528,426.251Z" transform="translate(-231.73 -165.092)" fill="#d28690"/>
  <path id="Path_77" data-name="Path 77" d="M695.256,551.02a17.751,17.751,0,0,0-1.548,5.578c-24.1,7.229-41.741-8.054-41.741-8.054a210.357,210.357,0,0,1-5.223-21.989c-.432-2.541-.335-7.467.064-13.477L689.9,505.52S698.009,546.758,695.256,551.02Z" transform="translate(-254.166 -190.824)" opacity="0.1"/>
  <path id="Path_78" data-name="Path 78" d="M719.978,361.85c-1.1,3.579-.683,10.859-.683,10.859l-9.9,46.738s-4.811,36.014-5.636,40.825-2.2,25.981-2.2,25.981c-28.044,13.748-49.653-4.946-49.653-4.946a210.737,210.737,0,0,1-5.223-22c-1.38-8.164,2.682-40.87,4.6-55.4.574-4.3.961-7.009.961-7.009l7.216-26.806s8.867-22.615,12.168-29.211,16.56-21.415,16.56-21.415c1.644-1.045,4.275,2.644,6.229,6,1.477,2.541,2.579,4.9,2.579,4.9s16.5,7.145,18.965,10.962,2.063,11.685,2.341,12.1S721.081,358.277,719.978,361.85Z" transform="translate(-253.746 -127.01)" fill="#585b8a"/>
  <path id="Path_79" data-name="Path 79" d="M684.088,345.521s1.238,7.287-1.935,9.486c-3.063,2.128-25.865,46.964-27.283,49.763.574-4.308.961-7.016.961-7.016l7.216-26.8s8.873-22.615,12.168-29.218,16.566-21.415,16.566-21.415c1.644-1.045,4.269,2.644,6.223,6C695.057,332.444,688.911,344.012,684.088,345.521Z" transform="translate(-257.105 -129.119)" opacity="0.1"/>
  <path id="Path_80" data-name="Path 80" d="M683.231,344.671s1.232,7.287-1.935,9.486-25.858,46.957-27.3,49.756c.574-4.3.961-7.009.961-7.009l7.216-26.806s8.867-22.615,12.168-29.211,16.56-21.415,16.56-21.415c1.644-1.045,4.275,2.644,6.229,6C694.2,331.587,688.048,343.162,683.231,344.671Z" transform="translate(-256.811 -128.84)" fill="#585b8a"/>
  <path id="Path_81" data-name="Path 81" d="M653.175,418.16l-7.757,40.361v.006l-.742,3.863v.006l-1.67,8.686-7.125-1.509-3.321-.7L586.6,459.133l-3.379-.716-7.712-1.631,1.509-10.021.625-4.166,5.565-36.95Z" transform="translate(-193.915 -133.663)" fill="#6c63ff"/>
  <path id="Path_82" data-name="Path 82" d="M675.363,511.92s-18.281,6.6-14.3,14.432S690.62,520.3,690.62,520.3Z" transform="translate(-259.209 -193.77)" fill="#d28690"/>
  <path id="Path_83" data-name="Path 83" d="M703.8,599.1c0,.548.69,7.564,3.437,10.034S703.8,599.1,703.8,599.1Z" transform="translate(-274.263 -222.868)" opacity="0.1"/>
  <path id="Path_84" data-name="Path 84" d="M675.24,637.68s3.3,9.073,16.353,12.787S675.24,637.68,675.24,637.68Z" transform="translate(-264.355 -235.605)" opacity="0.1"/>
  <path id="Path_85" data-name="Path 85" d="M700.453,271.978a21.441,21.441,0,0,1-10.75,18.591,11.413,11.413,0,0,1-3.224-2.689c-.935-1.135-1.664-2.683-1.1-4.037.451-1.09,1.644-1.78,1.935-2.908a4.282,4.282,0,0,0-.1-2.076c-.239-1.064-.464-2.128-.7-3.186-.2-.9-.555-1.967-1.451-2.186s-1.644.529-2.347,1.083c-1.722,1.361-5.023,2.283-7.093,1.167s-1.49-4.849-1.825-6.868a1.2,1.2,0,0,0-.451-.909,1.883,1.883,0,0,0-.935-.065,2.692,2.692,0,0,1-2.334-2.07,17.809,17.809,0,0,1-.374-3.321,3.7,3.7,0,0,0-1.483-2.87,4.585,4.585,0,0,0-2.444-.4l-4.043.045A21.448,21.448,0,0,1,700.421,272Z" transform="translate(-259.492 -106.796)" opacity="0.1"/>
  <path id="Path_86" data-name="Path 86" d="M681.224,271.386c.7-.555,1.477-1.29,2.347-1.077s1.245,1.29,1.444,2.18l.7,3.179a4.32,4.32,0,0,1,.11,2.083c-.329,1.135-1.515,1.818-1.973,2.908-.561,1.354.174,2.9,1.1,4.03a11.607,11.607,0,0,0,6.635,3.966,4.875,4.875,0,0,0,2.07.045c1.535-.355,2.579-1.767,3.4-3.089,4.262-6.642,7.932-13.922,8.68-21.776a13.968,13.968,0,0,0-.219-4.8,16.119,16.119,0,0,0-1.47-3.514,28.371,28.371,0,0,0-4.146-6.274,23.55,23.55,0,0,0-11.143-6.249,37.736,37.736,0,0,0-14.386-1.128c-1.29.148-2.528.361-3.8.445a38.232,38.232,0,0,1-4.785-.077l-9.492-.567c-.542,1.1,0,2.412.645,3.443s1.444,2.1,1.393,3.327-.922,2.192-1.593,3.224-1.18,2.367-.509,3.373,2.038,1.07,3.224,1.058l4.785-.052a4.572,4.572,0,0,1,2.431.419,3.715,3.715,0,0,1,1.483,2.87,18.972,18.972,0,0,0,.374,3.321,2.683,2.683,0,0,0,2.334,2.07,1.741,1.741,0,0,1,.935.071,1.187,1.187,0,0,1,.451.9c.335,2.018-.284,5.746,1.825,6.868S679.5,272.746,681.224,271.386Z" transform="translate(-257.352 -103.756)" fill="#663d5c"/>
  <path id="Path_87" data-name="Path 87" d="M715.059,353.437A10.511,10.511,0,0,0,704,360.5c-2.579,7.345-6.88,20.6-5.8,25.832,1.515,7.422,3.3,19.8,3.3,19.8s7.835,4.514,3.869,9.066-5.088,11-5.088,11-5.088,2.2-6.184,6.874-8.525,11.13-8.525,11.13l-11.13,11.136s18.417,18.7,22.131,19.655l11.407-13.335,13.471-17.869,11.685-12.252s2.747-6.448,1.374-18.7-6.739-23.917-6.739-23.917l.413-4.127S729.445,355.224,715.059,353.437Z" transform="translate(-263.429 -139.273)" opacity="0.1"/>
  <path id="Path_88" data-name="Path 88" d="M716.762,353.438a10.511,10.511,0,0,0-11.046,7.061c-2.579,7.345-6.88,20.6-5.8,25.832,1.509,7.422,3.3,19.8,3.3,19.8s7.835,4.514,3.869,9.066-5.081,11-5.081,11-5.088,2.2-6.19,6.874-8.518,11.13-8.518,11.13L676.15,455.336s18.417,18.7,22.131,19.655l11.407-13.335,13.439-17.869,11.685-12.252s2.753-6.448,1.373-18.7-6.732-23.917-6.732-23.917l.413-4.127S731.149,355.224,716.762,353.438Z" transform="translate(-264.007 -139.274)" fill="#585b8a"/>
  <path id="Path_89" data-name="Path 89" d="M721.28,418.34s11.685,14.29,16.637,11.13S721.28,418.34,721.28,418.34Z" transform="translate(-279.976 -162.799)" opacity="0.1"/>
  <path id="Path_90" data-name="Path 90" d="M728.1,401.28c1.238.413,11.414,14.573,16.637,12.9S728.1,401.28,728.1,401.28Z" transform="translate(-282.284 -157.109)" opacity="0.1"/>
  <path id="Path_91" data-name="Path 91" d="M732.58,439s.69,8.112,9.073,7.009S732.58,439,732.58,439Z" transform="translate(-283.9 -169.74)" opacity="0.1"/>
  <path id="Path_92" data-name="Path 92" d="M618.523,301.83l-4.533,10.1,5.662-5.746Z" transform="translate(-208.034 -100.271)" opacity="0.1"/>
  <path id="Path_93" data-name="Path 93" d="M618.523,300.98l-4.533,10.1,5.662-5.746Z" transform="translate(-208.034 -99.989)" fill="#f0f3f7"/>
  <path id="Path_94" data-name="Path 94" d="M587.432,479.484l-3.379-.716-6.2-11.652.626-4.166Z" transform="translate(-195.735 -153.665)" opacity="0.3"/>
  <path id="Path_95" data-name="Path 95" d="M676.838,487.65l-.742,3.863v.006l-8.8,7.177-3.321-.7Z" transform="translate(-224.859 -161.982)" opacity="0.3"/>
  <path id="Path_96" data-name="Path 96" d="M486.575,414.608c-1.7.284-3.353.542-4.862.735-8.383,1.1-28.321-8.8-28.321-8.8s-24.33-20.345-31.339-39.587,8.383-22.131,8.383-22.131c5.8-3.3,18.423,5.907,20.209,7.422s3.3,5.359,3.16,7.835,4.127,5.636,4.127,5.636,7.287,12.645,9.073,14.019,2.2,2.612,2.747,4.952,5.359,4.262,7.422,4.121,4.514.69,4.514,1.786c0,.883,2.018,1.322,3.676,1.464C485.853,399.112,486.337,408.346,486.575,414.608Z" transform="translate(-177.588 -137.231)" opacity="0.1"/>
  <path id="Path_97" data-name="Path 97" d="M487.105,411.385c-1.29.206-2.528.393-3.688.548-8.383,1.1-28.315-8.8-28.315-8.8s-24.33-20.345-31.339-39.587,8.383-22.131,8.383-22.131c5.8-3.3,18.417,5.907,20.2,7.422s3.3,5.359,3.166,7.835,4.121,5.636,4.121,5.636,7.287,12.645,9.073,14.019,2.2,2.612,2.753,4.952,5.359,4.256,7.422,4.121,4.514.69,4.514,1.786c0,.645,1.148,1.077,2.425,1.29.052.748.1,1.541.155,2.367C486.4,397.185,486.841,405.271,487.105,411.385Z" transform="translate(-178.177 -136.109)" opacity="0.1"/>
  <path id="Path_98" data-name="Path 98" d="M571.214,428.84l-.522,12.355h-.561l-1.161-.645.142-10.646A18.7,18.7,0,0,1,571.214,428.84Z" transform="translate(-228.597 -166.273)" opacity="0.1"/>
  <path id="Path_99" data-name="Path 99" d="M430.435,343.12s-15.392,2.889-8.383,22.131,31.339,39.593,31.339,39.593,19.932,9.892,28.322,8.8,21.164-3.985,22.815-3.572,12.787.413,12.787.413l.548-12.9-12.9-.69-6.6-1.374s-2.341-1.935-3.714-1.651-4.256-1.651-4.256-1.651-2.205-1.786-3.869-1.786-4.811-.413-4.811-1.509-2.476-1.935-4.514-1.786-6.906-1.786-7.474-4.153-.961-3.572-2.747-4.946-9.073-14.025-9.073-14.025-4.262-3.16-4.127-5.629-1.374-6.326-3.16-7.841S436.2,339.825,430.435,343.12Z" transform="translate(-177.25 -136.669)" fill="#dce6f2"/>
  <path id="Path_100" data-name="Path 100" d="M494.9,412.15s-5.913,5.913-4.4,7.009Z" transform="translate(-201.894 -160.818)" opacity="0.1"/>
  <path id="Path_101" data-name="Path 101" d="M503.962,419.4s-7.7,5.913-5.636,6.326S503.962,419.4,503.962,419.4Z" transform="translate(-204.498 -163.238)" opacity="0.1"/>
  <path id="Path_102" data-name="Path 102" d="M487,433c1.1.555,17.456,10.317,23.646,10.176Z" transform="translate(-200.596 -167.692)" opacity="0.1"/>
  <path id="Path_103" data-name="Path 103" d="M474.72,324.038s-2.889,9.486-3.992,9.486c-.864,0-15.373-11.749-21.428-16.689l.264-.219s.548-4.262,2.747-6.448S474.72,324.038,474.72,324.038Z" transform="translate(-187.821 -126.654)" opacity="0.1"/>
  <path id="Path_104" data-name="Path 104" d="M473.86,322.328s-2.882,9.486-3.985,9.486c-.871,0-15.38-11.749-21.435-16.689l.264-.219s.555-4.262,2.753-6.448S473.86,322.328,473.86,322.328Z" transform="translate(-187.53 -126.087)" fill="#dce6f2"/>
  <g id="Group_2" data-name="Group 2" transform="translate(247.222 132.215)" opacity="0.15">
    <path id="Path_105" data-name="Path 105" d="M427.49,282.54h0c1.935,4.417,7.261,6.558,10.35,10.079C436,288.292,430.63,286.17,427.49,282.54Z" transform="translate(-427.49 -250.717)"/>
    <path id="Path_106" data-name="Path 106" d="M453.393,296.267a4.634,4.634,0,0,1-4.23,2.16,12.343,12.343,0,0,1-4.243-1.083,8.248,8.248,0,0,1,1.1,2.334,13.478,13.478,0,0,0,4.8,1.29,4.588,4.588,0,0,0,4.23-2.16c1.232-2.354-.052-4.366-1.554-6.268A4.1,4.1,0,0,1,453.393,296.267Z" transform="translate(-433.68 -254.269)"/>
    <path id="Path_107" data-name="Path 107" d="M479.528,242.869c-.277-1.238-1.219-2.212-1.7-3.379a21.093,21.093,0,0,1-.7-2.76,8.551,8.551,0,0,0-1.98-3.54,8.222,8.222,0,0,1,.329.974,22.173,22.173,0,0,0,.722,2.773c.484,1.167,1.425,2.141,1.7,3.379a3.5,3.5,0,0,1-2.579,4.037c-2.386.522-5.107-1.541-7.158-.213-1.257.806-1.548,2.489-1.715,3.972q-.432,3.869-.877,7.693a9.22,9.22,0,0,1-.567,2.644c-1.012,2.321-3.792,3.411-6.326,3.373a3.8,3.8,0,0,1-2.721-.9,17.979,17.979,0,0,0-1.18-1.5c-3.224-2.708-4.2,3.914-3.353,5.8a11.686,11.686,0,0,0,1.573,2.367c-.709-2.128.284-8.254,3.431-5.629a16.654,16.654,0,0,1,1.174,1.5,3.824,3.824,0,0,0,2.728.9c2.534.039,5.313-1.051,6.326-3.373a9.221,9.221,0,0,0,.567-2.65q.439-3.869.877-7.687c.168-1.483.458-3.166,1.709-3.972,2.057-1.328,4.778.735,7.164.206a3.5,3.5,0,0,0,2.56-4.017Z" transform="translate(-435.885 -233.19)"/>
  </g>
  <path id="Path_108" data-name="Path 108" d="M694.947,287a4.986,4.986,0,0,1-2.07-.052,11.607,11.607,0,0,1-6.629-3.959c-.935-1.135-1.67-2.683-1.1-4.037.451-1.09,1.638-1.773,1.935-2.908a4.32,4.32,0,0,0-.11-2.083l-.7-3.179c-.2-.9-.548-1.967-1.444-2.18s-1.644.522-2.347,1.077c-1.722,1.361-5.03,2.289-7.093,1.167s-1.49-4.849-1.825-6.868a1.206,1.206,0,0,0-.451-.9,1.838,1.838,0,0,0-.942-.071,2.7,2.7,0,0,1-2.334-2.07,18.308,18.308,0,0,1-.368-3.321,3.721,3.721,0,0,0-1.49-2.87,4.636,4.636,0,0,0-2.431-.419l-4.785.052c-1.18,0-2.579-.077-3.224-1.058s-.168-2.373.509-3.373a6.675,6.675,0,0,0,1.593-3.224c.058-1.232-.742-2.3-1.393-3.327a5.966,5.966,0,0,1-.812-1.844l-1.374-.084c-.535,1.1,0,2.405.645,3.443s1.451,2.1,1.393,3.321-.916,2.2-1.593,3.224-1.174,2.367-.5,3.373,2.031,1.077,3.224,1.064l4.785-.058a4.63,4.63,0,0,1,2.431.426,3.7,3.7,0,0,1,1.49,2.87,17.814,17.814,0,0,0,.374,3.321,2.669,2.669,0,0,0,2.334,2.064,1.889,1.889,0,0,1,.935.071,1.212,1.212,0,0,1,.451.909c.335,2.012-.284,5.746,1.825,6.868s5.4.193,7.093-1.167c.7-.555,1.483-1.29,2.354-1.083s1.245,1.29,1.438,2.18l.7,3.185a4.314,4.314,0,0,1,.1,2.083c-.322,1.128-1.515,1.818-1.967,2.9-.561,1.354.168,2.908,1.1,4.037a11.608,11.608,0,0,0,6.674,3.959,4.984,4.984,0,0,0,2.07.052,4.861,4.861,0,0,0,2.682-2.038A3.582,3.582,0,0,1,694.947,287Z" transform="translate(-257.423 -103.707)" opacity="0.1"/>
  <ellipse id="Ellipse_3" data-name="Ellipse 3" cx="15.586" cy="2.392" rx="15.586" ry="2.392" transform="translate(118.806 476.873)" fill="#6c63ff" opacity="0.1"/>
  <ellipse id="Ellipse_4" data-name="Ellipse 4" cx="15.586" cy="2.392" rx="15.586" ry="2.392" transform="translate(677.648 409.968)" fill="#6c63ff" opacity="0.1"/>
  <ellipse id="Ellipse_5" data-name="Ellipse 5" cx="45.139" cy="6.926" rx="45.139" ry="6.926" transform="translate(485.1 506.542)" fill="#6c63ff" opacity="0.1"/>
  <ellipse id="Ellipse_6" data-name="Ellipse 6" cx="35.208" cy="5.404" rx="35.208" ry="5.404" transform="translate(627.447 478.724)" fill="#6c63ff" opacity="0.1"/>
  <ellipse id="Ellipse_7" data-name="Ellipse 7" cx="59.706" cy="9.163" rx="59.706" ry="9.163" transform="translate(597.153 528.808)" fill="#6c63ff" opacity="0.1"/>
  <ellipse id="Ellipse_8" data-name="Ellipse 8" cx="45.139" cy="6.926" rx="45.139" ry="6.926" transform="translate(19.5 539.107)" fill="#6c63ff" opacity="0.1"/>
  <path id="Path_109" data-name="Path 109" d="M256.219,631.85s1.767,2.309-.812,5.8-4.707,6.448-3.869,8.6c0,0,3.869-6.448,7.093-6.565S259.708,635.745,256.219,631.85Z" transform="translate(-124.162 -233.641)" fill="#6c63ff"/>
  <path id="Path_110" data-name="Path 110" d="M256.283,631.85a2.581,2.581,0,0,1,.361.722c3.1,3.637,4.74,7.022,1.767,7.093-2.766.077-6.087,5.03-6.88,6.281a2.407,2.407,0,0,0,.09.284s3.869-6.448,7.093-6.565S259.771,635.745,256.283,631.85Z" transform="translate(-124.225 -233.641)" opacity="0.1"/>
  <path id="Path_111" data-name="Path 111" d="M263.773,636.122c0,.813-.1,1.47-.206,1.47s-.206-.645-.206-1.47.116-.426.226-.426S263.773,635.31,263.773,636.122Z" transform="translate(-128.427 -235.209)" fill="#ffd037"/>
  <path id="Path_112" data-name="Path 112" d="M264.974,637.611c-.709.387-1.335.645-1.386.522s.477-.49,1.193-.883.432-.1.484,0S265.69,637.218,264.974,637.611Z" transform="translate(-128.507 -235.714)" fill="#ffd037"/>
  <path id="Path_113" data-name="Path 113" d="M242.257,631.85s-1.767,2.309.813,5.8,4.714,6.448,3.869,8.6c0,0-3.869-6.448-7.061-6.565S238.749,635.745,242.257,631.85Z" transform="translate(-119.524 -233.641)" fill="#6c63ff"/>
  <path id="Path_114" data-name="Path 114" d="M242.25,631.85a2.845,2.845,0,0,0-.361.722c-3.1,3.637-4.74,7.022-1.767,7.093,2.766.077,6.087,5.03,6.887,6.281a2.459,2.459,0,0,1-.1.284s-3.869-6.448-7.061-6.565S238.742,635.745,242.25,631.85Z" transform="translate(-119.517 -233.641)" opacity="0.1"/>
  <path id="Path_115" data-name="Path 115" d="M239.35,636.122c0,.813.09,1.47.2,1.47s.206-.645.206-1.47-.116-.426-.226-.426S239.35,635.31,239.35,636.122Z" transform="translate(-119.899 -235.209)" fill="#ffd037"/>
  <path id="Path_116" data-name="Path 116" d="M237.361,637.611c.716.387,1.335.645,1.393.522s-.484-.49-1.2-.883-.432-.1-.484,0S236.645,637.218,237.361,637.611Z" transform="translate(-119.039 -235.714)" fill="#ffd037"/>
  <ellipse id="Ellipse_9" data-name="Ellipse 9" cx="18.462" cy="2.831" rx="18.462" ry="2.831" transform="translate(111.822 425.313)" fill="#6c63ff" opacity="0.1"/>
  <path id="Path_117" data-name="Path 117" d="M255.938,648.757l-.09.722-.123,1.019-.052.426-.123,1.019-.058.426-.123,1.019-1.412,11.607c-.123,1.032-1.812,1.838-3.869,1.838h-7.313c-2.038,0-3.727-.806-3.869-1.838L237.5,653.387l-.123-1.019-.052-.426-.129-1.019-.052-.426-.122-1.019-.09-.722c-.071-.587.845-1.077,2-1.077h15.018C255.093,647.68,256.009,648.17,255.938,648.757Z" transform="translate(-119.038 -238.766)" fill="#65617d"/>
  <path id="Path_118" data-name="Path 118" d="M201.789,614.76l-.123,1.019H183.083l-.123-1.019Z" transform="translate(-64.98 -204.47)" fill="#9d9cb5"/>
  <path id="Path_119" data-name="Path 119" d="M201.711,617l-.123,1.019h-18.23L183.23,617Z" transform="translate(-65.076 -205.215)" fill="#9d9cb5"/>
  <path id="Path_120" data-name="Path 120" d="M201.637,619.24l-.129,1.019H183.633l-.123-1.019Z" transform="translate(-65.175 -205.96)" fill="#9d9cb5"/>
  <path id="Path_121" data-name="Path 121" d="M1082.553,618s-2.206,10.266,7.6,11.478l.606-1.141S1083.159,621.185,1082.553,618Z" transform="translate(-401.603 -229.118)" fill="#6c63ff"/>
  <path id="Path_122" data-name="Path 122" d="M1095.548,625.4l-2.283.484-.226.052s-6.087-4.94-6.01-15.966a27.215,27.215,0,0,0,2.908,4.6C1092.349,617.76,1095.09,622.016,1095.548,625.4Z" transform="translate(-403.268 -226.336)" fill="#6c63ff"/>
  <path id="Path_123" data-name="Path 123" d="M1098.446,624.367a1.432,1.432,0,0,1-1.225.161c-5.855-1.367-3.869-20.448-3.869-20.448.322.148.645,2.579,2.025,5.713C1097.73,615.294,1100.328,622.987,1098.446,624.367Z" transform="translate(-405.399 -224.264)" fill="#6c63ff"/>
  <path id="Path_124" data-name="Path 124" d="M1116.04,618s.38,10.266-9.427,11.478l-.613-1.161S1115.434,621.185,1116.04,618Z" transform="translate(-410.006 -229.118)" fill="#6c63ff"/>
  <path id="Path_125" data-name="Path 125" d="M1111.517,610a18.986,18.986,0,0,1-7.828,15.966l-.232-.052-2.276-.484c.451-3.385,3.224-7.641,5.6-10.833A24.81,24.81,0,0,1,1111.517,610Z" transform="translate(-408.294 -226.346)" fill="#6c63ff"/>
  <path id="Path_126" data-name="Path 126" d="M1102.656,623.377a3.558,3.558,0,0,1-1.29,1h0a2.5,2.5,0,0,1-.484.161c-1.438.335-1.935-.7-1.857-2.47.135-3.141,2.109-8.589,3.869-12.671a15.841,15.841,0,0,1,3.676-5.307S1106.48,618.941,1102.656,623.377Z" transform="translate(-407.526 -224.267)" fill="#6c63ff"/>
  <path id="Path_127" data-name="Path 127" d="M1100.36,593.7s-6.539,23.214-.909,26.684S1101.8,595.751,1100.36,593.7Z" transform="translate(-406.868 -220.654)" fill="#6c63ff"/>
  <path id="Path_128" data-name="Path 128" d="M1082.553,618s-2.206,10.266,7.6,11.478l.606-1.141S1083.159,621.185,1082.553,618Z" transform="translate(-401.603 -229.118)" opacity="0.1"/>
  <path id="Path_129" data-name="Path 129" d="M1095.548,625.4l-2.283.484-.226.052s-6.087-4.94-6.01-15.966a27.215,27.215,0,0,0,2.908,4.6C1092.349,617.76,1095.09,622.016,1095.548,625.4Z" transform="translate(-403.268 -226.336)" opacity="0.1"/>
  <path id="Path_130" data-name="Path 130" d="M1098.446,624.367a1.432,1.432,0,0,1-1.225.161c-5.855-1.367-3.869-20.448-3.869-20.448.322.148.645,2.579,2.025,5.713C1097.73,615.294,1100.328,622.987,1098.446,624.367Z" transform="translate(-405.399 -224.264)" opacity="0.1"/>
  <path id="Path_131" data-name="Path 131" d="M1116.04,618s.38,10.266-9.427,11.478l-.613-1.161S1115.434,621.185,1116.04,618Z" transform="translate(-410.006 -229.118)" opacity="0.1"/>
  <path id="Path_132" data-name="Path 132" d="M1111.517,610a18.986,18.986,0,0,1-7.828,15.966l-.232-.052-2.276-.484c.451-3.385,3.224-7.641,5.6-10.833A24.81,24.81,0,0,1,1111.517,610Z" transform="translate(-408.294 -226.346)" opacity="0.1"/>
  <path id="Path_133" data-name="Path 133" d="M1102.656,623.377a3.558,3.558,0,0,1-1.29,1h0a2.5,2.5,0,0,1-.484.161c-1.438.335-1.935-.7-1.857-2.47.135-3.141,2.109-8.589,3.869-12.671a15.841,15.841,0,0,1,3.676-5.307S1106.48,618.941,1102.656,623.377Z" transform="translate(-407.526 -224.267)" opacity="0.1"/>
  <path id="Path_134" data-name="Path 134" d="M1100.36,593.7s-6.539,23.214-.909,26.684S1101.8,595.751,1100.36,593.7Z" transform="translate(-406.868 -220.654)" opacity="0.1"/>
  <path id="Path_135" data-name="Path 135" d="M1082.639,618s-1.29,10.266,8.512,11.478l.606-1.141S1083.245,621.185,1082.639,618Z" transform="translate(-401.689 -229.118)" fill="#6c63ff"/>
  <path id="Path_136" data-name="Path 136" d="M1096.447,625.412l-2.283.484-.226.052s-7-4.94-6.938-15.947c0,0,1.793,1.935,3.818,4.6C1093.248,617.77,1095.989,622.026,1096.447,625.412Z" transform="translate(-403.258 -226.346)" fill="#6c63ff"/>
  <path id="Path_137" data-name="Path 137" d="M1098.56,627.933l-2.283.484c-2.16-1.9-3.018-6.848-3.327-11.317C1095.362,620.292,1098.1,624.548,1098.56,627.933Z" transform="translate(-405.371 -228.823)" opacity="0.1"/>
  <path id="Path_138" data-name="Path 138" d="M1099.494,624.367a1.445,1.445,0,0,1-1.232.161c-5.855-1.367-4.785-20.448-4.785-20.448.323.148,1.586,2.579,2.934,5.713C1098.778,615.294,1101.371,622.987,1099.494,624.367Z" transform="translate(-405.531 -224.264)" fill="#6c63ff"/>
  <path id="Path_139" data-name="Path 139" d="M1116.548,618s1.29,10.266-8.512,11.478l-.606-1.141S1115.942,621.185,1116.548,618Z" transform="translate(-410.514 -229.118)" fill="#6c63ff"/>
  <path id="Path_140" data-name="Path 140" d="M1112.018,610c.077,11.027-6.919,15.966-6.919,15.966l-.226-.052-2.283-.484c.451-3.385,3.224-7.641,5.61-10.833C1110.225,611.935,1112.018,610,1112.018,610Z" transform="translate(-408.795 -226.346)" fill="#6c63ff"/>
  <path id="Path_141" data-name="Path 141" d="M1108.2,617.1c-.3,4.166-1.057,8.751-2.908,10.891a3.274,3.274,0,0,1-.419.426l-2.283-.484C1103.041,624.548,1105.788,620.292,1108.2,617.1Z" transform="translate(-408.795 -228.823)" opacity="0.1"/>
  <path id="Path_142" data-name="Path 142" d="M1104.067,623.377a3.488,3.488,0,0,1-1.29,1h0a2.576,2.576,0,0,1-.477.161c-1.444.335-1.935-.7-1.864-2.47.142-3.141,2.115-8.589,3.869-12.671,1.29-2.934,2.457-5.159,2.766-5.307C1107.072,604.083,1107.891,618.941,1104.067,623.377Z" transform="translate(-408.028 -224.267)" fill="#6c63ff"/>
  <path id="Path_143" data-name="Path 143" d="M1100.961,627.513a1.548,1.548,0,0,1-.928-.3c-2.754-1.715-2.812-8.151-2.154-14.277C1100.246,618.44,1102.838,626.133,1100.961,627.513Z" transform="translate(-406.999 -227.358)" opacity="0.1"/>
  <path id="Path_144" data-name="Path 144" d="M1104.071,626.3c-.316.69-.742,1.051-1.29,1h0a1.735,1.735,0,0,1-.78-.3,4.167,4.167,0,0,1-1.561-2.012c.142-3.14,2.115-8.589,3.869-12.671C1104.941,617.975,1105.154,623.972,1104.071,626.3Z" transform="translate(-408.031 -227.141)" opacity="0.1"/>
  <path id="Path_145" data-name="Path 145" d="M1100.744,593.7s-5.623,23.214,0,26.684S1102.188,595.751,1100.744,593.7Z" transform="translate(-407.252 -220.654)" fill="#6c63ff"/>
  <path id="Path_146" data-name="Path 146" d="M1051.854,597.61H1028.44v3.875h3.573l.09.458,1.432,7.525h13.613l1.432-7.525.084-.458h3.192Z" transform="translate(-347.568 -198.486)" fill="#4b4770"/>
  <path id="Path_147" data-name="Path 147" d="M1051.854,597.61H1028.44v3.875h3.573l.09.458,1.432,7.525h13.613l1.432-7.525.084-.458h3.192Z" transform="translate(-347.568 -198.486)" opacity="0.1"/>
  <path id="Path_148" data-name="Path 148" d="M1052.182,601.14l-.393,2.057-1.432,7.525h-13.613l-1.432-7.525-.393-2.057Z" transform="translate(-349.869 -199.719)" fill="#4b4770"/>
  <path id="Path_149" data-name="Path 149" d="M1052.182,601.14l-.393,2.057h-16.476l-.393-2.057Z" transform="translate(-349.869 -199.913)" opacity="0.1"/>
  <rect id="Rectangle_2" data-name="Rectangle 2" width="23.414" height="3.876" transform="translate(681.782 398.917)" fill="#4b4770"/>
  <path id="Path_150" data-name="Path 150" d="M171.339,733.517a11.248,11.248,0,0,0-1.47,2.773c-.09.239-.181.516-.271.78a2.811,2.811,0,0,0-.509-.181,7.094,7.094,0,0,0-2.3-.193c0-.3.039-.645.045-.948.1-3.4-.3-8.131-3.547-6.126-3.108,1.935-.89,5.159,1.116,7.222.174.181.348.348.516.51-1.831,1.29-2.18,4.34-2.483,7.506s-2.992,6.629-4.778,8.6c-.181.2-.342.38-.5.548a6.545,6.545,0,0,0-5.191-1.335c-.071-.277-.155-.567-.239-.87-1.444-5.217-4.443-14.251-8.267-16.231l.5-.645c1.625-2.122,3.456-5.281.754-6.087s-2.947,2.734-2.8,5.391q.039.5.077.948a3.953,3.953,0,0,0-2.824,1.38l-.419-.5c-2.192-2.579-6.21-6.687-7.429-3.585-1.135,2.889,2.405,6.642,4.894,8.815l.155.135c-1.67,6.777,5.623,12.3,9.55,14.722l.509.31c-5.417,6.384-8.763,18.352-8.763,18.352l15.167,2.708s10.06-8.68,8.77-16.83h.1c10.053-2.012,12.336-12.729,10.769-19.094l.181-.071A11.381,11.381,0,0,0,177.31,738C180.121,734.1,174.241,729.687,171.339,733.517Z" transform="translate(-81.454 -263.183)" fill="#6c63ff"/>
  <path id="Path_151" data-name="Path 151" d="M171.339,733.517a11.248,11.248,0,0,0-1.47,2.773c-.09.239-.181.516-.271.78a2.811,2.811,0,0,0-.509-.181,7.094,7.094,0,0,0-2.3-.193c0-.3.039-.645.045-.948.1-3.4-.3-8.131-3.547-6.126-3.108,1.935-.89,5.159,1.116,7.222.174.181.348.348.516.51-1.831,1.29-2.18,4.34-2.483,7.506s-2.992,6.629-4.778,8.6c-.181.2-.342.38-.5.548a6.545,6.545,0,0,0-5.191-1.335c-.071-.277-.155-.567-.239-.87-1.444-5.217-4.443-14.251-8.267-16.231l.5-.645c1.625-2.122,3.456-5.281.754-6.087s-2.947,2.734-2.8,5.391q.039.5.077.948a3.953,3.953,0,0,0-2.824,1.38l-.419-.5c-2.192-2.579-6.21-6.687-7.429-3.585-1.135,2.889,2.405,6.642,4.894,8.815l.155.135c-1.67,6.777,5.623,12.3,9.55,14.722l.509.31c-5.417,6.384-8.763,18.352-8.763,18.352l15.167,2.708s10.06-8.68,8.77-16.83h.1c10.053-2.012,12.336-12.729,10.769-19.094l.181-.071A11.381,11.381,0,0,0,177.31,738C180.121,734.1,174.241,729.687,171.339,733.517Z" transform="translate(-81.454 -263.183)" opacity="0.1"/>
  <path id="Path_152" data-name="Path 152" d="M141.659,739.386l-1.773,5.159s-.987-.7-2.231-1.793c-2.489-2.173-6.029-5.926-4.894-8.815,1.219-3.1,5.236.993,7.429,3.585C141.072,738.554,141.659,739.386,141.659,739.386Z" transform="translate(-81.966 -264.641)" fill="#6c63ff"/>
  <path id="Path_153" data-name="Path 153" d="M151.337,734.935a24.566,24.566,0,0,1-1.728,2.038,27.209,27.209,0,0,1-.316-2.734c-.148-2.657.135-6.184,2.8-5.391S152.962,732.813,151.337,734.935Z" transform="translate(-87.904 -263.188)" fill="#6c63ff"/>
  <path id="Path_154" data-name="Path 154" d="M185.2,735.981c-.052,1.709-.219,3.076-.219,3.076a22.521,22.521,0,0,1-2.212-1.98c-2.005-2.083-4.224-5.294-1.116-7.222C184.861,727.843,185.261,732.583,185.2,735.981Z" transform="translate(-98.858 -263.416)" fill="#6c63ff"/>
  <path id="Path_155" data-name="Path 155" d="M199.626,739.818a11.382,11.382,0,0,1-4.656,3.521,13.951,13.951,0,0,1-1.561.567l-2.089-2.934a20.75,20.75,0,0,1,.864-2.85,11.247,11.247,0,0,1,1.47-2.773C196.543,731.518,202.437,735.929,199.626,739.818Z" transform="translate(-102.841 -265.015)" fill="#6c63ff"/>
  <path id="Path_156" data-name="Path 156" d="M143,740.11c.883,1.032,1.47,1.831,1.47,1.831L142.7,747.1s-.987-.7-2.231-1.793a10.125,10.125,0,0,1,2-4.559C142.643,740.536,142.83,740.316,143,740.11Z" transform="translate(-84.781 -267.229)" opacity="0.1"/>
  <path id="Path_157" data-name="Path 157" d="M151.354,737.966A24.559,24.559,0,0,1,149.626,740a27.213,27.213,0,0,1-.316-2.734A3.566,3.566,0,0,1,151.354,737.966Z" transform="translate(-87.921 -266.22)" opacity="0.1"/>
  <path id="Path_158" data-name="Path 158" d="M156.875,759.088l-4.411,1.935s-.961-.464-2.347-1.328c-4.636-2.85-13.954-10.027-7.738-18.488s11.459,6.713,13.542,14.135C156.546,757.6,156.875,759.088,156.875,759.088Z" transform="translate(-84.724 -266.732)" fill="#6c63ff"/>
  <path id="Path_159" data-name="Path 159" d="M184.18,740.716a3.624,3.624,0,0,1,2.431-1.1c-.052,1.709-.219,3.076-.219,3.076A22.52,22.52,0,0,1,184.18,740.716Z" transform="translate(-100.305 -267.055)" opacity="0.1"/>
  <path id="Path_160" data-name="Path 160" d="M194.99,745.677a13.94,13.94,0,0,1-1.561.568l-2.089-2.934a20.743,20.743,0,0,1,.864-2.85C193.539,741.247,194.532,743.207,194.99,745.677Z" transform="translate(-102.848 -267.353)" opacity="0.1"/>
  <path id="Path_161" data-name="Path 161" d="M175.116,765.044c-.239.052-.49.1-.742.135-14.786,2.244-4.875-5.733-4.875-5.733s.645-.645,1.567-1.619c1.786-1.967,4.469-5.41,4.778-8.6.464-4.791,1-9.286,6.655-7.97C188.051,742.565,189.115,762.239,175.116,765.044Z" transform="translate(-93.937 -267.556)" fill="#6c63ff"/>
  <rect id="Rectangle_3" data-name="Rectangle 3" width="28.251" height="7.429" transform="translate(52.651 534.303)" fill="#d4dfec"/>
  <rect id="Rectangle_4" data-name="Rectangle 4" width="36.911" height="25.923" transform="translate(48.163 510.16)" fill="#d4dfec"/>
  <rect id="Rectangle_5" data-name="Rectangle 5" width="28.251" height="7.429" transform="translate(52.651 534.303)" opacity="0.1"/>
  <rect id="Rectangle_6" data-name="Rectangle 6" width="36.911" height="25.923" transform="translate(48.163 510.16)" opacity="0.1"/>
  <rect id="Rectangle_7" data-name="Rectangle 7" width="28.251" height="7.429" transform="translate(54.509 534.303)" fill="#d4dfec"/>
  <path id="Path_162" data-name="Path 162" d="M161.324,764.51c.645,2.218.954,3.74.954,3.74l-4.411,1.935s-.961-.464-2.347-1.328C157.248,766.67,159.2,765.019,161.324,764.51Z" transform="translate(-90.127 -275.895)" opacity="0.1"/>
  <path id="Path_163" data-name="Path 163" d="M175.116,774.3c-.239.052-.49.1-.742.135-14.786,2.244-4.875-5.733-4.875-5.733s.645-.645,1.567-1.619A9.791,9.791,0,0,1,175.116,774.3Z" transform="translate(-93.937 -276.807)" opacity="0.1"/>
  <path id="Path_164" data-name="Path 164" d="M142.72,787.937s8.28-29.663,19.893-20.513-4.727,23.214-4.727,23.214Z" transform="translate(-85.581 -276.307)" fill="#6c63ff"/>
  <circle id="Ellipse_10" data-name="Ellipse 10" cx="0.929" cy="0.929" r="0.929" transform="translate(60.389 478.195)" opacity="0.1"/>
  <circle id="Ellipse_11" data-name="Ellipse 11" cx="0.929" cy="0.929" r="0.929" transform="translate(60.312 482.528)" opacity="0.1"/>
  <circle id="Ellipse_12" data-name="Ellipse 12" cx="0.929" cy="0.929" r="0.929" transform="translate(87.247 479.046)" opacity="0.1"/>
  <circle id="Ellipse_13" data-name="Ellipse 13" cx="0.929" cy="0.929" r="0.929" transform="translate(65.58 501.261)" opacity="0.1"/>
  <circle id="Ellipse_14" data-name="Ellipse 14" cx="0.929" cy="0.929" r="0.929" transform="translate(85.313 486.242)" opacity="0.1"/>
  <circle id="Ellipse_15" data-name="Ellipse 15" cx="0.929" cy="0.929" r="0.929" transform="translate(75.717 495.844)" opacity="0.1"/>
  <circle id="Ellipse_16" data-name="Ellipse 16" cx="0.929" cy="0.929" r="0.929" transform="translate(63.562 480.052)" opacity="0.1"/>
  <circle id="Ellipse_17" data-name="Ellipse 17" cx="0.929" cy="0.929" r="0.929" transform="translate(84.694 481.832)" opacity="0.1"/>
  <circle id="Ellipse_18" data-name="Ellipse 18" cx="0.929" cy="0.929" r="0.929" transform="translate(81.521 489.028)" opacity="0.1"/>
  <circle id="Ellipse_19" data-name="Ellipse 19" cx="0.929" cy="0.929" r="0.929" transform="translate(71.771 500.564)" opacity="0.1"/>
  <circle id="Ellipse_20" data-name="Ellipse 20" cx="0.929" cy="0.929" r="0.929" transform="translate(69.759 495.999)" opacity="0.1"/>
  <circle id="Ellipse_21" data-name="Ellipse 21" cx="0.929" cy="0.929" r="0.929" transform="translate(64.955 485.701)" opacity="0.1"/>
  <rect id="Rectangle_8" data-name="Rectangle 8" width="28.251" height="2.715" transform="translate(54.509 534.303)" opacity="0.1"/>
  <rect id="Rectangle_9" data-name="Rectangle 9" width="36.911" height="25.923" transform="translate(50.02 510.16)" fill="#d4dfec"/>
  <circle id="Ellipse_22" data-name="Ellipse 22" cx="0.929" cy="0.929" r="0.929" transform="translate(73.009 504.743)" opacity="0.1"/>
  <circle id="Ellipse_23" data-name="Ellipse 23" cx="0.929" cy="0.929" r="0.929" transform="translate(67.438 505.904)" opacity="0.1"/>
  <circle id="Ellipse_24" data-name="Ellipse 24" cx="6.745" cy="6.745" r="6.745" transform="translate(25.497 26.787)" fill="#6c63ff" opacity="0.1"/>
  <circle id="Ellipse_25" data-name="Ellipse 25" cx="9.028" cy="9.028" r="9.028" transform="translate(688.694 245.269)" fill="#6c63ff" opacity="0.1"/>
  <circle id="Ellipse_26" data-name="Ellipse 26" cx="6.59" cy="6.59" r="6.59" transform="translate(708.536 227.676)" fill="#6c63ff" opacity="0.1"/>
  <circle id="Ellipse_27" data-name="Ellipse 27" cx="9.028" cy="9.028" r="9.028" transform="translate(34.821)" fill="#6c63ff" opacity="0.1"/>
  <circle id="Ellipse_28" data-name="Ellipse 28" cx="9.028" cy="9.028" r="9.028" transform="translate(0 41.27)" fill="#6c63ff" opacity="0.1"/>
</svg>
